<svg width="3300" height="2200" viewBox="0 0 3300 2200" fill="none" xmlns="http://www.w3.org/2000/svg">
<g id="u" clip-path="url(#clip0_762_449)">
<g id="Notes">
<path id="artboard" d="M3300 0H0V2200H3300V0Z" fill="white"/>
<path id="Vector" d="M263 292H3036" stroke="black" stroke-width="0.5"/>
<text id="Weight/Scale Variations" fill="black" xml:space="preserve" style="white-space: pre" font-family="Inter" font-size="13" font-weight="bold" letter-spacing="0em"><tspan x="263" y="321.727">Weight/Scale Variations</tspan></text>
<text id="Ultralight" fill="black" xml:space="preserve" style="white-space: pre" font-family="Inter" font-size="13" letter-spacing="0em"><tspan x="531.211" y="321.727">Ultralight</tspan></text>
<text id="Thin" fill="black" xml:space="preserve" style="white-space: pre" font-family="Inter" font-size="13" letter-spacing="0em"><tspan x="842.922" y="321.727">Thin</tspan></text>
<text id="Light" fill="black" xml:space="preserve" style="white-space: pre" font-family="Inter" font-size="13" letter-spacing="0em"><tspan x="1137.63" y="321.727">Light</tspan></text>
<text id="Regular" fill="black" xml:space="preserve" style="white-space: pre" font-family="Inter" font-size="13" letter-spacing="0em"><tspan x="1426.34" y="321.727">Regular</tspan></text>
<text id="Medium" fill="black" xml:space="preserve" style="white-space: pre" font-family="Inter" font-size="13" letter-spacing="0em"><tspan x="1721.56" y="321.727">Medium</tspan></text>
<text id="Semibold" fill="black" xml:space="preserve" style="white-space: pre" font-family="Inter" font-size="13" letter-spacing="0em"><tspan x="2014.27" y="321.727">Semibold</tspan></text>
<text id="Bold" fill="black" xml:space="preserve" style="white-space: pre" font-family="Inter" font-size="13" letter-spacing="0em"><tspan x="2325.98" y="321.727">Bold</tspan></text>
<text id="Heavy" fill="black" xml:space="preserve" style="white-space: pre" font-family="Inter" font-size="13" letter-spacing="0em"><tspan x="2617.19" y="321.727">Heavy</tspan></text>
<text id="Black" fill="black" xml:space="preserve" style="white-space: pre" font-family="Inter" font-size="13" letter-spacing="0em"><tspan x="2916.4" y="321.727">Black</tspan></text>
<path id="Vector_2" d="M263 1903H3036" stroke="black" stroke-width="0.5"/>
<g id="Group">
<path id="Vector_3" d="M272.248 1933.83C276.555 1933.83 280.139 1930.26 280.139 1925.95C280.139 1921.64 276.545 1918.07 272.238 1918.07C267.941 1918.07 264.367 1921.64 264.367 1925.95C264.367 1930.26 267.951 1933.83 272.248 1933.83ZM272.248 1932.35C268.703 1932.35 265.871 1929.5 265.871 1925.95C265.871 1922.39 268.693 1919.55 272.238 1919.55C275.793 1919.55 278.644 1922.39 278.644 1925.95C278.644 1929.5 275.803 1932.35 272.248 1932.35ZM268.654 1925.95C268.654 1926.38 268.957 1926.67 269.406 1926.67H271.506V1928.79C271.506 1929.23 271.799 1929.53 272.229 1929.53C272.678 1929.53 272.971 1929.23 272.971 1928.79V1926.67H275.09C275.529 1926.67 275.832 1926.38 275.832 1925.95C275.832 1925.51 275.529 1925.21 275.09 1925.21H272.971V1923.1C272.971 1922.65 272.678 1922.35 272.229 1922.35C271.799 1922.35 271.506 1922.65 271.506 1923.1V1925.21H269.406C268.957 1925.21 268.654 1925.51 268.654 1925.95Z" fill="black"/>
</g>
<g id="Group_2">
<path id="Vector_4" d="M293.576 1935.91C299.025 1935.91 303.537 1931.39 303.537 1925.95C303.537 1920.5 299.016 1915.99 293.566 1915.99C288.127 1915.99 283.615 1920.5 283.615 1925.95C283.615 1931.39 288.137 1935.91 293.576 1935.91ZM293.576 1934.25C288.967 1934.25 285.285 1930.56 285.285 1925.95C285.285 1921.34 288.957 1917.65 293.566 1917.65C298.176 1917.65 301.877 1921.34 301.877 1925.95C301.877 1930.56 298.186 1934.25 293.576 1934.25ZM289.045 1925.95C289.045 1926.43 289.377 1926.75 289.875 1926.75H292.746V1929.63C292.746 1930.12 293.078 1930.46 293.557 1930.46C294.045 1930.46 294.387 1930.13 294.387 1929.63V1926.75H297.268C297.756 1926.75 298.098 1926.43 298.098 1925.95C298.098 1925.46 297.756 1925.12 297.268 1925.12H294.387V1922.25C294.387 1921.75 294.045 1921.41 293.557 1921.41C293.078 1921.41 292.746 1921.75 292.746 1922.25V1925.12H289.875C289.377 1925.12 289.045 1925.46 289.045 1925.95Z" fill="black"/>
</g>
<g id="Group_3">
<path id="Vector_5" d="M320.617 1938.66C327.58 1938.66 333.342 1932.9 333.342 1925.95C333.342 1918.99 327.57 1913.22 320.607 1913.22C313.654 1913.22 307.902 1918.99 307.902 1925.95C307.902 1932.9 313.664 1938.66 320.617 1938.66ZM320.617 1936.85C314.582 1936.85 309.729 1931.98 309.729 1925.95C309.729 1919.9 314.572 1915.05 320.607 1915.05C326.652 1915.05 331.516 1919.9 331.516 1925.95C331.516 1931.98 326.662 1936.85 320.617 1936.85ZM314.846 1925.95C314.846 1926.47 315.217 1926.83 315.764 1926.83H319.709V1930.78C319.709 1931.32 320.08 1931.7 320.598 1931.7C321.135 1931.7 321.506 1931.33 321.506 1930.78V1926.83H325.461C325.998 1926.83 326.379 1926.47 326.379 1925.95C326.379 1925.4 326.008 1925.03 325.461 1925.03H321.506V1921.09C321.506 1920.54 321.135 1920.16 320.598 1920.16C320.08 1920.16 319.709 1920.54 319.709 1921.09V1925.03H315.764C315.217 1925.03 314.846 1925.4 314.846 1925.95Z" fill="black"/>
</g>
<text id="Design Variations" fill="black" xml:space="preserve" style="white-space: pre" font-family="Inter" font-size="13" font-weight="bold" letter-spacing="0em"><tspan x="263" y="1952.73">Design Variations</tspan></text>
<text id="Symbols are supported in up to nine weights and three scales." fill="black" xml:space="preserve" style="white-space: pre" font-family="Inter" font-size="13" letter-spacing="0em"><tspan x="263" y="1970.73">Symbols are supported in up to nine weights and three scales.</tspan></text>
<text id="For optimal layout with text and other symbols, vertically align" fill="black" xml:space="preserve" style="white-space: pre" font-family="Inter" font-size="13" letter-spacing="0em"><tspan x="263" y="1988.73">For optimal layout with text and other symbols, vertically align</tspan></text>
<text id="symbols with the adjacent text." fill="black" xml:space="preserve" style="white-space: pre" font-family="Inter" font-size="13" letter-spacing="0em"><tspan x="263" y="2006.73">symbols with the adjacent text.</tspan></text>
<path id="Vector_6" d="M776 1919V1933" stroke="#00AEEF" stroke-width="0.5"/>
<g id="Group_4">
<path id="Vector_7" d="M779.311 1933.16C779.828 1933.16 780.082 1932.96 780.268 1932.41L781.527 1928.97H787.289L788.549 1932.41C788.734 1932.96 788.988 1933.16 789.496 1933.16C790.014 1933.16 790.346 1932.84 790.346 1932.36C790.346 1932.19 790.316 1932.03 790.238 1931.83L785.658 1919.63C785.434 1919.04 785.033 1918.73 784.408 1918.73C783.803 1918.73 783.393 1919.03 783.178 1919.62L778.598 1931.84C778.52 1932.04 778.49 1932.2 778.49 1932.37C778.49 1932.85 778.803 1933.16 779.311 1933.16ZM782.006 1927.48L784.379 1920.91H784.428L786.801 1927.48H782.006Z" fill="black"/>
</g>
<path id="Vector_8" d="M793.197 1919V1933" stroke="#00AEEF" stroke-width="0.5"/>
<text id="Margins" fill="black" xml:space="preserve" style="white-space: pre" font-family="Inter" font-size="13" font-weight="bold" letter-spacing="0em"><tspan x="776" y="1952.73">Margins</tspan></text>
<text id="Leading and trailing margins on the left and right side of each symbol" fill="black" xml:space="preserve" style="white-space: pre" font-family="Inter" font-size="13" letter-spacing="0em"><tspan x="776" y="1970.73">Leading and trailing margins on the left and right side of each symbol</tspan></text>
<text id="can be adjusted by modifying the x-location of the margin guidelines." fill="black" xml:space="preserve" style="white-space: pre" font-family="Inter" font-size="13" letter-spacing="0em"><tspan x="776" y="1988.73">can be adjusted by modifying the x-location of the margin guidelines.</tspan></text>
<text id="Modifications are automatically applied proportionally to all" fill="black" xml:space="preserve" style="white-space: pre" font-family="Inter" font-size="13" letter-spacing="0em"><tspan x="776" y="2006.73">Modifications are automatically applied proportionally to all</tspan></text>
<text id="scales and weights." fill="black" xml:space="preserve" style="white-space: pre" font-family="Inter" font-size="13" letter-spacing="0em"><tspan x="776" y="2024.73">scales and weights.</tspan></text>
<g id="Group_5">
<path id="Vector_9" d="M1291.84 1934.87L1293.54 1936.57C1294.4 1937.44 1295.39 1937.38 1296.31 1936.36L1307.01 1924.57L1306.04 1923.6L1295.43 1935.28C1295.07 1935.68 1294.74 1935.77 1294.27 1935.3L1293.1 1934.14C1292.63 1933.68 1292.74 1933.34 1293.14 1932.98L1304.62 1922.18L1303.64 1921.21L1292.05 1932.1C1291.06 1933.02 1290.98 1934 1291.84 1934.87ZM1298.26 1916.67C1297.84 1917.08 1297.81 1917.66 1298.04 1918.05C1298.28 1918.41 1298.74 1918.64 1299.38 1918.48C1300.85 1918.14 1302.37 1918.08 1303.79 1919.02L1303.21 1920.47C1302.87 1921.3 1303.04 1921.89 1303.58 1922.43L1305.87 1924.75C1306.36 1925.24 1306.77 1925.26 1307.34 1925.16L1308.4 1924.96L1309.07 1925.64L1309.03 1926.19C1308.99 1926.69 1309.12 1927.07 1309.61 1927.55L1310.37 1928.29C1310.85 1928.77 1311.46 1928.8 1311.93 1928.33L1314.84 1925.41C1315.31 1924.94 1315.29 1924.35 1314.81 1923.87L1314.04 1923.11C1313.56 1922.63 1313.19 1922.47 1312.71 1922.51L1312.13 1922.56L1311.49 1921.93L1311.73 1920.8C1311.86 1920.24 1311.71 1919.8 1311.12 1919.21L1308.92 1917.02C1305.58 1913.7 1301.15 1913.78 1298.26 1916.67ZM1299.75 1917.04C1302.18 1915.27 1305.47 1915.57 1307.7 1917.79L1310.13 1920.21C1310.37 1920.44 1310.41 1920.63 1310.34 1920.97L1310.02 1922.45L1311.52 1923.94L1312.51 1923.88C1312.76 1923.87 1312.84 1923.89 1313.03 1924.08L1313.61 1924.66L1311.17 1927.1L1310.59 1926.53C1310.4 1926.33 1310.37 1926.25 1310.38 1925.99L1310.45 1925.01L1308.95 1923.53L1307.43 1923.78C1307.11 1923.85 1306.96 1923.82 1306.71 1923.59L1304.71 1921.58C1304.46 1921.35 1304.43 1921.18 1304.59 1920.81L1305.46 1918.72C1303.9 1917.27 1301.87 1916.64 1299.84 1917.24C1299.68 1917.28 1299.62 1917.15 1299.75 1917.04Z" fill="black"/>
</g>
<text id="Exporting" fill="black" xml:space="preserve" style="white-space: pre" font-family="Inter" font-size="13" font-weight="bold" letter-spacing="0em"><tspan x="1289" y="1952.73">Exporting</tspan></text>
<text id="Symbols should be outlined when exporting to ensure the" fill="black" xml:space="preserve" style="white-space: pre" font-family="Inter" font-size="13" letter-spacing="0em"><tspan x="1289" y="1970.73">Symbols should be outlined when exporting to ensure the</tspan></text>
<text id="design is preserved when submitting to Xcode." fill="black" xml:space="preserve" style="white-space: pre" font-family="Inter" font-size="13" letter-spacing="0em"><tspan x="1289" y="1988.73">design is preserved when submitting to Xcode.</tspan></text>
<text id="template-version" fill="black" xml:space="preserve" style="white-space: pre" font-family="Inter" font-size="13" letter-spacing="0em"><tspan x="2945" y="1932.73">Template v.4.0</tspan></text>
<text id="Requires Xcode 14 or greater" fill="black" xml:space="preserve" style="white-space: pre" font-family="Inter" font-size="13" letter-spacing="0em"><tspan x="2857" y="1950.73">Requires Xcode 14 or greater</tspan></text>
<text id="descriptive-name" fill="black" xml:space="preserve" style="white-space: pre" font-family="Inter" font-size="13" letter-spacing="0em"><tspan x="2809" y="1968.73">Generated from custom.x.squareroot</tspan></text>
<text id="Typeset at 100 points" fill="black" xml:space="preserve" style="white-space: pre" font-family="Inter" font-size="13" letter-spacing="0em"><tspan x="2903" y="1986.73">Typeset at 100 points</tspan></text>
<text id="Small" fill="black" xml:space="preserve" style="white-space: pre" font-family="Inter" font-size="13" letter-spacing="0em"><tspan x="263" y="725.727">Small</tspan></text>
<text id="Medium_2" fill="black" xml:space="preserve" style="white-space: pre" font-family="Inter" font-size="13" letter-spacing="0em"><tspan x="263" y="1155.73">Medium</tspan></text>
<text id="Large" fill="black" xml:space="preserve" style="white-space: pre" font-family="Inter" font-size="13" letter-spacing="0em"><tspan x="263" y="1585.73">Large</tspan></text>
</g>
<g id="Guides">
<g id="H-reference">
<path id="Vector_10" d="M339.994 696H342.638L368.329 628.868H369.031V625.541H367.123L339.994 696ZM350.689 671.52H385.982L385.232 669.272H351.439L350.689 671.52ZM394.12 696H396.764L369.639 625.541H368.433V628.868L394.12 696Z" fill="#27AAE1"/>
</g>
<path id="Baseline-S" d="M263 696H3036" stroke="#27AAE1" stroke-width="0.5"/>
<path id="Capline-S" d="M263 625.541H3036" stroke="#27AAE1" stroke-width="0.5"/>
<g id="H-reference_2">
<path id="Vector_11" d="M339.994 1126H342.638L368.329 1058.87H369.031V1055.54H367.123L339.994 1126ZM350.689 1101.52H385.982L385.232 1099.27H351.439L350.689 1101.52ZM394.12 1126H396.764L369.639 1055.54H368.433V1058.87L394.12 1126Z" fill="#27AAE1"/>
</g>
<path id="Baseline-M" d="M263 1126H3036" stroke="#27AAE1" stroke-width="0.5"/>
<path id="Capline-M" d="M263 1055.54H3036" stroke="#27AAE1" stroke-width="0.5"/>
<g id="H-reference_3">
<path id="Vector_12" d="M339.994 1556H342.638L368.329 1488.87H369.031V1485.54H367.123L339.994 1556ZM350.689 1531.52H385.982L385.232 1529.27H351.439L350.689 1531.52ZM394.12 1556H396.764L369.639 1485.54H368.433V1488.87L394.12 1556Z" fill="#27AAE1"/>
</g>
<path id="Baseline-L" d="M263 1556H3036" stroke="#27AAE1" stroke-width="0.5"/>
<path id="Capline-L" d="M263 1485.54H3036" stroke="#27AAE1" stroke-width="0.5"/>
<path id="left-margin-Ultralight-S" d="M518.33 600.785V720.121" stroke="#00AEEF" stroke-width="0.5"/>
<path id="right-margin-Ultralight-S" d="M601.092 600.785V720.121" stroke="#00AEEF" stroke-width="0.5"/>
<path id="left-margin-Regular-S" d="M1396.48 600.785V720.121" stroke="#00AEEF" stroke-width="0.5"/>
<path id="right-margin-Regular-S" d="M1503.21 600.785V720.121" stroke="#00AEEF" stroke-width="0.5"/>
<path id="left-margin-Black-S" d="M2879.01 600.785V720.121" stroke="#00AEEF" stroke-width="0.5"/>
<path id="right-margin-Black-S" d="M2987.79 600.785V720.121" stroke="#00AEEF" stroke-width="0.5"/>
</g>
<g id="Symbols">
<g id="Black-S">
<path id="Vector_13" fill-rule="evenodd" clip-rule="evenodd" d="M2954.88 626C2958.36 626 2961.69 627.383 2964.16 629.844C2966.62 632.306 2968 635.644 2968 639.125V682.875C2968 686.356 2966.62 689.694 2964.16 692.156C2961.69 694.617 2958.36 696 2954.88 696H2911.12C2907.64 696 2904.31 694.617 2901.84 692.156C2899.38 689.694 2898 686.356 2898 682.875V639.125C2898 635.644 2899.38 632.306 2901.84 629.844C2904.31 627.383 2907.64 626 2911.12 626H2954.88ZM2911.12 634.75C2910.05 634.75 2909.02 635.144 2908.22 635.856C2907.42 636.568 2906.91 637.549 2906.78 638.613L2906.75 682.875C2906.75 683.947 2907.14 684.981 2907.86 685.782C2908.57 686.582 2909.55 687.094 2910.61 687.219L2954.88 687.25C2955.95 687.25 2956.98 686.856 2957.78 686.144C2958.58 685.432 2959.09 684.451 2959.22 683.387L2959.25 639.125C2959.25 638.053 2958.86 637.019 2958.14 636.218C2957.43 635.418 2956.45 634.906 2955.39 634.781L2911.12 634.75ZM2927.17 643.5V664.964C2927.17 668.884 2929.55 671.207 2933 671.207C2936.25 671.207 2938.55 669.151 2938.81 665.642L2938.83 643.5H2947.58V665.764C2947.58 675.087 2940.9 678.5 2933 678.5C2925.37 678.5 2918.86 675.306 2918.44 666.674L2918.42 643.5H2927.17Z" fill="black"/>
</g>
<g id="Regular-S">
<path id="Vector_14" fill-rule="evenodd" clip-rule="evenodd" d="M1471.88 626C1475.36 626 1478.69 627.383 1481.16 629.844C1483.62 632.306 1485 635.644 1485 639.125V682.875C1485 686.356 1483.62 689.694 1481.16 692.156C1478.69 694.617 1475.36 696 1471.88 696H1428.12C1424.64 696 1421.31 694.617 1418.84 692.156C1416.38 689.694 1415 686.356 1415 682.875V639.125C1415 635.644 1416.38 632.306 1418.84 629.844C1421.31 627.383 1424.64 626 1428.12 626H1471.88ZM1428.12 634.75C1427.05 634.75 1426.02 635.144 1425.22 635.856C1424.42 636.568 1423.91 637.549 1423.78 638.613L1423.75 682.875C1423.75 683.947 1424.14 684.981 1424.86 685.782C1425.57 686.582 1426.55 687.094 1427.61 687.219L1471.88 687.25C1472.95 687.25 1473.98 686.856 1474.78 686.144C1475.58 685.432 1476.09 684.451 1476.22 683.387L1476.25 639.125C1476.25 638.053 1475.86 637.019 1475.14 636.218C1474.43 635.418 1473.45 634.906 1472.39 634.781L1428.12 634.75ZM1444.17 643.5V664.964C1444.17 668.884 1446.55 671.207 1450 671.207C1453.25 671.207 1455.55 669.151 1455.81 665.642L1455.83 643.5H1464.58V665.764C1464.58 675.087 1457.9 678.5 1450 678.5C1442.37 678.5 1435.86 675.306 1435.44 666.674L1435.42 643.5H1444.17Z" fill="black"/>
</g>
<g id="Ultralight-S">
<path id="Vector_15" fill-rule="evenodd" clip-rule="evenodd" d="M580.875 626C584.356 626 587.694 627.383 590.156 629.844C592.617 632.306 594 635.644 594 639.125V682.875C594 686.356 592.617 689.694 590.156 692.156C587.694 694.617 584.356 696 580.875 696H537.125C533.644 696 530.306 694.617 527.844 692.156C525.383 689.694 524 686.356 524 682.875V639.125C524 635.644 525.383 632.306 527.844 629.844C530.306 627.383 533.644 626 537.125 626H580.875ZM537.125 634.75C536.053 634.75 535.019 635.144 534.218 635.856C533.418 636.568 532.906 637.549 532.781 638.613L532.75 682.875C532.75 683.947 533.144 684.981 533.856 685.782C534.568 686.582 535.549 687.094 536.613 687.219L580.875 687.25C581.947 687.25 582.981 686.856 583.782 686.144C584.582 685.432 585.094 684.451 585.219 683.387L585.25 639.125C585.25 638.053 584.856 637.019 584.144 636.218C583.432 635.418 582.451 634.906 581.387 634.781L537.125 634.75ZM553.168 643.5V664.964C553.168 668.884 555.548 671.207 559 671.207C562.251 671.207 564.552 669.151 564.81 665.642L564.832 643.5H573.582V665.764C573.582 675.087 566.897 678.5 559 678.5C551.37 678.5 544.864 675.306 544.44 666.674L544.418 643.5H553.168Z" fill="black"/>
</g>
</g>
</g>
<defs>
<clipPath id="clip0_762_449">
<rect width="3300" height="2200" fill="white"/>
</clipPath>
</defs>
</svg>
