<svg width="3300" height="2200" viewBox="0 0 3300 2200" fill="none" xmlns="http://www.w3.org/2000/svg">
<g id="ship" clip-path="url(#clip0_762_593)">
<g id="Notes">
<path id="artboard" d="M3300 0H0V2200H3300V0Z" fill="white"/>
<path id="Vector" d="M263 292H3036" stroke="black" stroke-width="0.5"/>
<text id="Weight/Scale Variations" fill="black" xml:space="preserve" style="white-space: pre" font-family="Inter" font-size="13" font-weight="bold" letter-spacing="0em"><tspan x="263" y="321.727">Weight/Scale Variations</tspan></text>
<text id="Ultralight" fill="black" xml:space="preserve" style="white-space: pre" font-family="Inter" font-size="13" letter-spacing="0em"><tspan x="531.211" y="321.727">Ultralight</tspan></text>
<text id="Thin" fill="black" xml:space="preserve" style="white-space: pre" font-family="Inter" font-size="13" letter-spacing="0em"><tspan x="842.922" y="321.727">Thin</tspan></text>
<text id="Light" fill="black" xml:space="preserve" style="white-space: pre" font-family="Inter" font-size="13" letter-spacing="0em"><tspan x="1137.63" y="321.727">Light</tspan></text>
<text id="Regular" fill="black" xml:space="preserve" style="white-space: pre" font-family="Inter" font-size="13" letter-spacing="0em"><tspan x="1426.34" y="321.727">Regular</tspan></text>
<text id="Medium" fill="black" xml:space="preserve" style="white-space: pre" font-family="Inter" font-size="13" letter-spacing="0em"><tspan x="1721.56" y="321.727">Medium</tspan></text>
<text id="Semibold" fill="black" xml:space="preserve" style="white-space: pre" font-family="Inter" font-size="13" letter-spacing="0em"><tspan x="2014.27" y="321.727">Semibold</tspan></text>
<text id="Bold" fill="black" xml:space="preserve" style="white-space: pre" font-family="Inter" font-size="13" letter-spacing="0em"><tspan x="2325.98" y="321.727">Bold</tspan></text>
<text id="Heavy" fill="black" xml:space="preserve" style="white-space: pre" font-family="Inter" font-size="13" letter-spacing="0em"><tspan x="2617.19" y="321.727">Heavy</tspan></text>
<text id="Black" fill="black" xml:space="preserve" style="white-space: pre" font-family="Inter" font-size="13" letter-spacing="0em"><tspan x="2916.4" y="321.727">Black</tspan></text>
<path id="Vector_2" d="M263 1903H3036" stroke="black" stroke-width="0.5"/>
<g id="Group">
<path id="Vector_3" d="M272.248 1933.83C276.555 1933.83 280.139 1930.26 280.139 1925.95C280.139 1921.64 276.545 1918.07 272.238 1918.07C267.941 1918.07 264.367 1921.64 264.367 1925.95C264.367 1930.26 267.951 1933.83 272.248 1933.83ZM272.248 1932.35C268.703 1932.35 265.871 1929.5 265.871 1925.95C265.871 1922.39 268.693 1919.55 272.238 1919.55C275.793 1919.55 278.644 1922.39 278.644 1925.95C278.644 1929.5 275.803 1932.35 272.248 1932.35ZM268.654 1925.95C268.654 1926.38 268.957 1926.67 269.406 1926.67H271.506V1928.79C271.506 1929.23 271.799 1929.53 272.229 1929.53C272.678 1929.53 272.971 1929.23 272.971 1928.79V1926.67H275.09C275.529 1926.67 275.832 1926.38 275.832 1925.95C275.832 1925.51 275.529 1925.21 275.09 1925.21H272.971V1923.1C272.971 1922.65 272.678 1922.35 272.229 1922.35C271.799 1922.35 271.506 1922.65 271.506 1923.1V1925.21H269.406C268.957 1925.21 268.654 1925.51 268.654 1925.95Z" fill="black"/>
</g>
<g id="Group_2">
<path id="Vector_4" d="M293.576 1935.91C299.025 1935.91 303.537 1931.39 303.537 1925.95C303.537 1920.5 299.016 1915.99 293.566 1915.99C288.127 1915.99 283.615 1920.5 283.615 1925.95C283.615 1931.39 288.137 1935.91 293.576 1935.91ZM293.576 1934.25C288.967 1934.25 285.285 1930.56 285.285 1925.95C285.285 1921.34 288.957 1917.65 293.566 1917.65C298.176 1917.65 301.877 1921.34 301.877 1925.95C301.877 1930.56 298.186 1934.25 293.576 1934.25ZM289.045 1925.95C289.045 1926.43 289.377 1926.75 289.875 1926.75H292.746V1929.63C292.746 1930.12 293.078 1930.46 293.557 1930.46C294.045 1930.46 294.387 1930.13 294.387 1929.63V1926.75H297.268C297.756 1926.75 298.098 1926.43 298.098 1925.95C298.098 1925.46 297.756 1925.12 297.268 1925.12H294.387V1922.25C294.387 1921.75 294.045 1921.41 293.557 1921.41C293.078 1921.41 292.746 1921.75 292.746 1922.25V1925.12H289.875C289.377 1925.12 289.045 1925.46 289.045 1925.95Z" fill="black"/>
</g>
<g id="Group_3">
<path id="Vector_5" d="M320.617 1938.66C327.58 1938.66 333.342 1932.9 333.342 1925.95C333.342 1918.99 327.57 1913.22 320.607 1913.22C313.654 1913.22 307.902 1918.99 307.902 1925.95C307.902 1932.9 313.664 1938.66 320.617 1938.66ZM320.617 1936.85C314.582 1936.85 309.729 1931.98 309.729 1925.95C309.729 1919.9 314.572 1915.05 320.607 1915.05C326.652 1915.05 331.516 1919.9 331.516 1925.95C331.516 1931.98 326.662 1936.85 320.617 1936.85ZM314.846 1925.95C314.846 1926.47 315.217 1926.83 315.764 1926.83H319.709V1930.78C319.709 1931.32 320.08 1931.7 320.598 1931.7C321.135 1931.7 321.506 1931.33 321.506 1930.78V1926.83H325.461C325.998 1926.83 326.379 1926.47 326.379 1925.95C326.379 1925.4 326.008 1925.03 325.461 1925.03H321.506V1921.09C321.506 1920.54 321.135 1920.16 320.598 1920.16C320.08 1920.16 319.709 1920.54 319.709 1921.09V1925.03H315.764C315.217 1925.03 314.846 1925.4 314.846 1925.95Z" fill="black"/>
</g>
<text id="Design Variations" fill="black" xml:space="preserve" style="white-space: pre" font-family="Inter" font-size="13" font-weight="bold" letter-spacing="0em"><tspan x="263" y="1952.73">Design Variations</tspan></text>
<text id="Symbols are supported in up to nine weights and three scales." fill="black" xml:space="preserve" style="white-space: pre" font-family="Inter" font-size="13" letter-spacing="0em"><tspan x="263" y="1970.73">Symbols are supported in up to nine weights and three scales.</tspan></text>
<text id="For optimal layout with text and other symbols, vertically align" fill="black" xml:space="preserve" style="white-space: pre" font-family="Inter" font-size="13" letter-spacing="0em"><tspan x="263" y="1988.73">For optimal layout with text and other symbols, vertically align</tspan></text>
<text id="symbols with the adjacent text." fill="black" xml:space="preserve" style="white-space: pre" font-family="Inter" font-size="13" letter-spacing="0em"><tspan x="263" y="2006.73">symbols with the adjacent text.</tspan></text>
<path id="Vector_6" d="M776 1919V1933" stroke="#00AEEF" stroke-width="0.5"/>
<g id="Group_4">
<path id="Vector_7" d="M779.311 1933.16C779.828 1933.16 780.082 1932.96 780.268 1932.41L781.527 1928.97H787.289L788.549 1932.41C788.734 1932.96 788.988 1933.16 789.496 1933.16C790.014 1933.16 790.346 1932.84 790.346 1932.36C790.346 1932.19 790.316 1932.03 790.238 1931.83L785.658 1919.63C785.434 1919.04 785.033 1918.73 784.408 1918.73C783.803 1918.73 783.393 1919.03 783.178 1919.62L778.598 1931.84C778.52 1932.04 778.49 1932.2 778.49 1932.37C778.49 1932.85 778.803 1933.16 779.311 1933.16ZM782.006 1927.48L784.379 1920.91H784.428L786.801 1927.48H782.006Z" fill="black"/>
</g>
<path id="Vector_8" d="M793.197 1919V1933" stroke="#00AEEF" stroke-width="0.5"/>
<text id="Margins" fill="black" xml:space="preserve" style="white-space: pre" font-family="Inter" font-size="13" font-weight="bold" letter-spacing="0em"><tspan x="776" y="1952.73">Margins</tspan></text>
<text id="Leading and trailing margins on the left and right side of each symbol" fill="black" xml:space="preserve" style="white-space: pre" font-family="Inter" font-size="13" letter-spacing="0em"><tspan x="776" y="1970.73">Leading and trailing margins on the left and right side of each symbol</tspan></text>
<text id="can be adjusted by modifying the x-location of the margin guidelines." fill="black" xml:space="preserve" style="white-space: pre" font-family="Inter" font-size="13" letter-spacing="0em"><tspan x="776" y="1988.73">can be adjusted by modifying the x-location of the margin guidelines.</tspan></text>
<text id="Modifications are automatically applied proportionally to all" fill="black" xml:space="preserve" style="white-space: pre" font-family="Inter" font-size="13" letter-spacing="0em"><tspan x="776" y="2006.73">Modifications are automatically applied proportionally to all</tspan></text>
<text id="scales and weights." fill="black" xml:space="preserve" style="white-space: pre" font-family="Inter" font-size="13" letter-spacing="0em"><tspan x="776" y="2024.73">scales and weights.</tspan></text>
<g id="Group_5">
<path id="Vector_9" d="M1291.84 1934.87L1293.54 1936.57C1294.4 1937.44 1295.39 1937.38 1296.31 1936.36L1307.01 1924.57L1306.04 1923.6L1295.43 1935.28C1295.07 1935.68 1294.74 1935.77 1294.27 1935.3L1293.1 1934.14C1292.63 1933.68 1292.74 1933.34 1293.14 1932.98L1304.62 1922.18L1303.64 1921.21L1292.05 1932.1C1291.06 1933.02 1290.98 1934 1291.84 1934.87ZM1298.26 1916.67C1297.84 1917.08 1297.81 1917.66 1298.04 1918.05C1298.28 1918.41 1298.74 1918.64 1299.38 1918.48C1300.85 1918.14 1302.37 1918.08 1303.79 1919.02L1303.21 1920.47C1302.87 1921.3 1303.04 1921.89 1303.58 1922.43L1305.87 1924.75C1306.36 1925.24 1306.77 1925.26 1307.34 1925.16L1308.4 1924.96L1309.07 1925.64L1309.03 1926.19C1308.99 1926.69 1309.12 1927.07 1309.61 1927.55L1310.37 1928.29C1310.85 1928.77 1311.46 1928.8 1311.93 1928.33L1314.84 1925.41C1315.31 1924.94 1315.29 1924.35 1314.81 1923.87L1314.04 1923.11C1313.56 1922.63 1313.19 1922.47 1312.71 1922.51L1312.13 1922.56L1311.49 1921.93L1311.73 1920.8C1311.86 1920.24 1311.71 1919.8 1311.12 1919.21L1308.92 1917.02C1305.58 1913.7 1301.15 1913.78 1298.26 1916.67ZM1299.75 1917.04C1302.18 1915.27 1305.47 1915.57 1307.7 1917.79L1310.13 1920.21C1310.37 1920.44 1310.41 1920.63 1310.34 1920.97L1310.02 1922.45L1311.52 1923.94L1312.51 1923.88C1312.76 1923.87 1312.84 1923.89 1313.03 1924.08L1313.61 1924.66L1311.17 1927.1L1310.59 1926.53C1310.4 1926.33 1310.37 1926.25 1310.38 1925.99L1310.45 1925.01L1308.95 1923.53L1307.43 1923.78C1307.11 1923.85 1306.96 1923.82 1306.71 1923.59L1304.71 1921.58C1304.46 1921.35 1304.43 1921.18 1304.59 1920.81L1305.46 1918.72C1303.9 1917.27 1301.87 1916.64 1299.84 1917.24C1299.68 1917.28 1299.62 1917.15 1299.75 1917.04Z" fill="black"/>
</g>
<text id="Exporting" fill="black" xml:space="preserve" style="white-space: pre" font-family="Inter" font-size="13" font-weight="bold" letter-spacing="0em"><tspan x="1289" y="1952.73">Exporting</tspan></text>
<text id="Symbols should be outlined when exporting to ensure the" fill="black" xml:space="preserve" style="white-space: pre" font-family="Inter" font-size="13" letter-spacing="0em"><tspan x="1289" y="1970.73">Symbols should be outlined when exporting to ensure the</tspan></text>
<text id="design is preserved when submitting to Xcode." fill="black" xml:space="preserve" style="white-space: pre" font-family="Inter" font-size="13" letter-spacing="0em"><tspan x="1289" y="1988.73">design is preserved when submitting to Xcode.</tspan></text>
<text id="template-version" fill="black" xml:space="preserve" style="white-space: pre" font-family="Inter" font-size="13" letter-spacing="0em"><tspan x="2945" y="1932.73">Template v.4.0</tspan></text>
<text id="Requires Xcode 14 or greater" fill="black" xml:space="preserve" style="white-space: pre" font-family="Inter" font-size="13" letter-spacing="0em"><tspan x="2857" y="1950.73">Requires Xcode 14 or greater</tspan></text>
<text id="descriptive-name" fill="black" xml:space="preserve" style="white-space: pre" font-family="Inter" font-size="13" letter-spacing="0em"><tspan x="2809" y="1968.73">Generated from custom.x.squareroot</tspan></text>
<text id="Typeset at 100 points" fill="black" xml:space="preserve" style="white-space: pre" font-family="Inter" font-size="13" letter-spacing="0em"><tspan x="2903" y="1986.73">Typeset at 100 points</tspan></text>
<text id="Small" fill="black" xml:space="preserve" style="white-space: pre" font-family="Inter" font-size="13" letter-spacing="0em"><tspan x="263" y="725.727">Small</tspan></text>
<text id="Medium_2" fill="black" xml:space="preserve" style="white-space: pre" font-family="Inter" font-size="13" letter-spacing="0em"><tspan x="263" y="1155.73">Medium</tspan></text>
<text id="Large" fill="black" xml:space="preserve" style="white-space: pre" font-family="Inter" font-size="13" letter-spacing="0em"><tspan x="263" y="1585.73">Large</tspan></text>
</g>
<g id="Guides">
<g id="H-reference">
<path id="Vector_10" d="M339.994 696H342.638L368.329 628.868H369.031V625.541H367.123L339.994 696ZM350.689 671.52H385.982L385.232 669.272H351.439L350.689 671.52ZM394.12 696H396.764L369.639 625.541H368.433V628.868L394.12 696Z" fill="#27AAE1"/>
</g>
<path id="Baseline-S" d="M263 696H3036" stroke="#27AAE1" stroke-width="0.5"/>
<path id="Capline-S" d="M263 625.541H3036" stroke="#27AAE1" stroke-width="0.5"/>
<g id="H-reference_2">
<path id="Vector_11" d="M339.994 1126H342.638L368.329 1058.87H369.031V1055.54H367.123L339.994 1126ZM350.689 1101.52H385.982L385.232 1099.27H351.439L350.689 1101.52ZM394.12 1126H396.764L369.639 1055.54H368.433V1058.87L394.12 1126Z" fill="#27AAE1"/>
</g>
<path id="Baseline-M" d="M263 1126H3036" stroke="#27AAE1" stroke-width="0.5"/>
<path id="Capline-M" d="M263 1055.54H3036" stroke="#27AAE1" stroke-width="0.5"/>
<g id="H-reference_3">
<path id="Vector_12" d="M339.994 1556H342.638L368.329 1488.87H369.031V1485.54H367.123L339.994 1556ZM350.689 1531.52H385.982L385.232 1529.27H351.439L350.689 1531.52ZM394.12 1556H396.764L369.639 1485.54H368.433V1488.87L394.12 1556Z" fill="#27AAE1"/>
</g>
<path id="Baseline-L" d="M263 1556H3036" stroke="#27AAE1" stroke-width="0.5"/>
<path id="Capline-L" d="M263 1485.54H3036" stroke="#27AAE1" stroke-width="0.5"/>
<path id="left-margin-Ultralight-S" d="M518.33 600.785V720.121" stroke="#00AEEF" stroke-width="0.5"/>
<path id="right-margin-Ultralight-S" d="M601.092 600.785V720.121" stroke="#00AEEF" stroke-width="0.5"/>
<path id="left-margin-Regular-S" d="M1396.48 600.785V720.121" stroke="#00AEEF" stroke-width="0.5"/>
<path id="right-margin-Regular-S" d="M1503.21 600.785V720.121" stroke="#00AEEF" stroke-width="0.5"/>
<path id="left-margin-Black-S" d="M2879.01 600.785V720.121" stroke="#00AEEF" stroke-width="0.5"/>
<path id="right-margin-Black-S" d="M2987.79 600.785V720.121" stroke="#00AEEF" stroke-width="0.5"/>
</g>
<g id="Symbols">
<g id="Black-S">
<path id="Vector_13" fill-rule="evenodd" clip-rule="evenodd" d="M2960.26 683.366C2960.56 683.716 2962.2 686.249 2964.62 686.249C2965.78 686.249 2966.9 686.71 2967.72 687.531C2968.54 688.351 2969 689.464 2969 690.624C2969 692.869 2967.12 695.004 2964.61 694.999C2962.21 694.999 2959.66 694.032 2956.97 692.099C2954.44 694.002 2951.89 694.956 2949.31 694.956C2946.73 694.956 2944.18 694.006 2941.66 692.103C2939.11 694.006 2936.55 694.969 2933.99 694.999C2931.43 695.03 2928.88 694.063 2926.34 692.103C2923.79 694.006 2921.24 694.969 2918.69 694.999C2916.13 695.03 2913.58 694.063 2911.03 692.103C2908.52 694.006 2905.96 694.969 2903.37 694.999C2902.21 694.999 2901.1 694.538 2900.28 693.718C2899.46 692.897 2899 691.785 2899 690.624C2899 689.464 2899.46 688.351 2900.28 687.531C2901.1 686.71 2902.21 686.249 2903.37 686.249C2903.9 686.249 2905.99 685.366 2907.74 683.371C2908.15 682.901 2908.65 682.524 2909.22 682.266C2909.79 682.008 2910.41 681.875 2911.03 681.875C2911.66 681.875 2912.27 682.008 2912.84 682.266C2913.41 682.524 2913.91 682.901 2914.33 683.371C2914.63 683.716 2916.44 686.249 2918.69 686.249C2920.93 686.249 2922.75 683.712 2923.05 683.366C2923.46 682.897 2923.97 682.521 2924.53 682.264C2925.1 682.006 2925.72 681.873 2926.34 681.873C2926.96 681.873 2927.58 682.006 2928.15 682.264C2928.72 682.521 2929.22 682.897 2929.63 683.366C2929.94 683.716 2931.82 686.249 2934 686.249C2936.19 686.249 2938.06 683.712 2938.37 683.366C2938.78 682.898 2939.28 682.522 2939.85 682.265C2940.42 682.008 2941.03 681.875 2941.66 681.875C2942.28 681.875 2942.89 682.008 2943.46 682.265C2944.03 682.522 2944.54 682.898 2944.95 683.366C2945.25 683.712 2947.13 686.249 2949.31 686.249C2951.5 686.249 2953.38 683.712 2953.68 683.366C2954.09 682.898 2954.59 682.522 2955.16 682.265C2955.73 682.008 2956.35 681.875 2956.97 681.875C2957.59 681.875 2958.21 682.008 2958.77 682.265C2959.34 682.522 2959.85 682.898 2960.26 683.366ZM2942.75 625C2943.64 625 2944.51 625.272 2945.24 625.78C2945.97 626.287 2946.53 627.006 2946.84 627.839L2953.69 646.875H2964.62C2965.21 646.874 2965.79 646.992 2966.33 647.221C2966.87 647.451 2967.36 647.786 2967.77 648.208C2968.18 648.63 2968.5 649.13 2968.71 649.679C2968.92 650.227 2969.02 650.812 2969 651.398C2968.66 661.133 2964.41 670.255 2957.28 676.432C2956.41 677.192 2955.26 677.572 2954.11 677.49C2952.95 677.407 2951.87 676.867 2951.11 675.99C2950.35 675.113 2949.97 673.97 2950.05 672.812C2950.14 671.654 2950.67 670.577 2951.55 669.817C2955.64 666.273 2958.05 662.235 2959.71 655.625C2941.07 655.537 2922.29 655.537 2903.37 655.625C2901.13 655.625 2899 653.494 2899 651.25C2899 650.178 2899.39 649.144 2900.11 648.343C2900.82 647.542 2901.8 647.031 2902.86 646.905L2944.66 646.875L2939.47 633.75H2903.37C2901.13 633.75 2899 631.619 2899 629.375C2899 628.303 2899.39 627.269 2900.11 626.468C2900.82 625.668 2901.8 625.156 2902.86 625.031L2942.75 625ZM2942.75 660C2943.91 660 2945.02 660.461 2945.84 661.281C2946.66 662.102 2947.12 663.214 2947.12 664.375C2947.12 665.535 2946.66 666.648 2945.84 667.468C2945.02 668.289 2943.91 668.75 2942.75 668.75C2941.59 668.75 2940.48 668.289 2939.66 667.468C2938.84 666.648 2938.37 665.535 2938.37 664.375C2938.37 663.214 2938.84 662.102 2939.66 661.281C2940.48 660.461 2941.59 660 2942.75 660ZM2925.25 660C2926.41 660 2927.52 660.461 2928.34 661.281C2929.16 662.102 2929.62 663.214 2929.62 664.375C2929.62 665.535 2929.16 666.648 2928.34 667.468C2927.52 668.289 2926.41 668.75 2925.25 668.75C2924.09 668.75 2922.98 668.289 2922.16 667.468C2921.34 666.648 2920.87 665.535 2920.87 664.375C2920.87 663.214 2921.34 662.102 2922.16 661.281C2922.98 660.461 2924.09 660 2925.25 660ZM2907.75 660C2908.91 660 2910.02 660.461 2910.84 661.281C2911.66 662.102 2912.12 663.214 2912.12 664.375C2912.12 665.535 2911.66 666.648 2910.84 667.468C2910.02 668.289 2908.91 668.75 2907.75 668.75C2906.59 668.75 2905.48 668.289 2904.66 667.468C2903.84 666.648 2903.37 665.535 2903.37 664.375C2903.37 663.214 2903.84 662.102 2904.66 661.281C2905.48 660.461 2906.59 660 2907.75 660Z" fill="black"/>
</g>
<g id="Regular-S">
<path id="Vector_14" fill-rule="evenodd" clip-rule="evenodd" d="M1476.26 684.366C1476.56 684.716 1478.2 687.249 1480.62 687.249C1481.78 687.249 1482.9 687.71 1483.72 688.531C1484.54 689.351 1485 690.464 1485 691.624C1485 693.869 1483.12 696.004 1480.61 695.999C1478.21 695.999 1475.66 695.032 1472.97 693.099C1470.44 695.002 1467.89 695.956 1465.31 695.956C1462.73 695.956 1460.18 695.006 1457.66 693.103C1455.11 695.006 1452.55 695.969 1449.99 695.999C1447.43 696.03 1444.88 695.063 1442.34 693.103C1439.79 695.006 1437.24 695.969 1434.69 695.999C1432.13 696.03 1429.58 695.063 1427.03 693.103C1424.52 695.006 1421.96 695.969 1419.37 695.999C1418.21 695.999 1417.1 695.538 1416.28 694.718C1415.46 693.897 1415 692.785 1415 691.624C1415 690.464 1415.46 689.351 1416.28 688.531C1417.1 687.71 1418.21 687.249 1419.37 687.249C1419.9 687.249 1421.99 686.366 1423.74 684.371C1424.15 683.901 1424.65 683.524 1425.22 683.266C1425.79 683.008 1426.41 682.875 1427.03 682.875C1427.66 682.875 1428.27 683.008 1428.84 683.266C1429.41 683.524 1429.91 683.901 1430.33 684.371C1430.63 684.716 1432.44 687.249 1434.69 687.249C1436.93 687.249 1438.75 684.712 1439.05 684.366C1439.46 683.897 1439.97 683.521 1440.53 683.264C1441.1 683.006 1441.72 682.873 1442.34 682.873C1442.96 682.873 1443.58 683.006 1444.15 683.264C1444.72 683.521 1445.22 683.897 1445.63 684.366C1445.94 684.716 1447.82 687.249 1450 687.249C1452.19 687.249 1454.06 684.712 1454.37 684.366C1454.78 683.898 1455.28 683.522 1455.85 683.265C1456.42 683.008 1457.03 682.875 1457.66 682.875C1458.28 682.875 1458.89 683.008 1459.46 683.265C1460.03 683.522 1460.54 683.898 1460.95 684.366C1461.25 684.712 1463.13 687.249 1465.31 687.249C1467.5 687.249 1469.38 684.712 1469.68 684.366C1470.09 683.898 1470.59 683.522 1471.16 683.265C1471.73 683.008 1472.35 682.875 1472.97 682.875C1473.59 682.875 1474.21 683.008 1474.77 683.265C1475.34 683.522 1475.85 683.898 1476.26 684.366ZM1458.75 626C1459.64 626 1460.51 626.272 1461.24 626.78C1461.97 627.287 1462.53 628.006 1462.84 628.839L1469.69 647.875H1480.62C1481.21 647.874 1481.79 647.992 1482.33 648.221C1482.87 648.451 1483.36 648.786 1483.77 649.208C1484.18 649.63 1484.5 650.13 1484.71 650.679C1484.92 651.227 1485.02 651.812 1485 652.398C1484.66 662.133 1480.41 671.255 1473.28 677.432C1472.41 678.192 1471.26 678.572 1470.11 678.49C1468.95 678.407 1467.87 677.867 1467.11 676.99C1466.35 676.113 1465.97 674.97 1466.05 673.812C1466.14 672.654 1466.67 671.577 1467.55 670.817C1471.64 667.273 1474.05 663.235 1475.71 656.625C1457.07 656.537 1438.29 656.537 1419.37 656.625C1417.13 656.625 1415 654.494 1415 652.25C1415 651.178 1415.39 650.144 1416.11 649.343C1416.82 648.542 1417.8 648.031 1418.86 647.905L1460.66 647.875L1455.47 634.75H1419.37C1417.13 634.75 1415 632.619 1415 630.375C1415 629.303 1415.39 628.269 1416.11 627.468C1416.82 626.668 1417.8 626.156 1418.86 626.031L1458.75 626ZM1458.75 661C1459.91 661 1461.02 661.461 1461.84 662.281C1462.66 663.102 1463.12 664.214 1463.12 665.375C1463.12 666.535 1462.66 667.648 1461.84 668.468C1461.02 669.289 1459.91 669.75 1458.75 669.75C1457.59 669.75 1456.48 669.289 1455.66 668.468C1454.84 667.648 1454.37 666.535 1454.37 665.375C1454.37 664.214 1454.84 663.102 1455.66 662.281C1456.48 661.461 1457.59 661 1458.75 661ZM1441.25 661C1442.41 661 1443.52 661.461 1444.34 662.281C1445.16 663.102 1445.62 664.214 1445.62 665.375C1445.62 666.535 1445.16 667.648 1444.34 668.468C1443.52 669.289 1442.41 669.75 1441.25 669.75C1440.09 669.75 1438.98 669.289 1438.16 668.468C1437.34 667.648 1436.87 666.535 1436.87 665.375C1436.87 664.214 1437.34 663.102 1438.16 662.281C1438.98 661.461 1440.09 661 1441.25 661ZM1423.75 661C1424.91 661 1426.02 661.461 1426.84 662.281C1427.66 663.102 1428.12 664.214 1428.12 665.375C1428.12 666.535 1427.66 667.648 1426.84 668.468C1426.02 669.289 1424.91 669.75 1423.75 669.75C1422.59 669.75 1421.48 669.289 1420.66 668.468C1419.84 667.648 1419.37 666.535 1419.37 665.375C1419.37 664.214 1419.84 663.102 1420.66 662.281C1421.48 661.461 1422.59 661 1423.75 661Z" fill="black"/>
</g>
<g id="Ultralight-S">
<path id="Vector_15" fill-rule="evenodd" clip-rule="evenodd" d="M587.258 684.366C587.564 684.716 589.205 687.249 591.624 687.249C592.785 687.249 593.897 687.71 594.718 688.531C595.538 689.351 595.999 690.464 595.999 691.624C595.999 693.869 594.118 696.004 591.607 695.999C589.209 695.999 586.663 695.032 583.968 693.099C581.444 695.002 578.893 695.956 576.312 695.956C573.731 695.956 571.18 695.006 568.656 693.103C566.105 695.006 563.546 695.969 560.987 695.999C558.427 696.03 555.881 695.063 553.343 693.103C550.793 695.006 548.242 695.969 545.687 695.999C543.132 696.03 540.582 695.063 538.031 693.103C535.52 695.006 532.965 695.969 530.375 695.999C529.215 695.999 528.102 695.538 527.281 694.718C526.461 693.897 526 692.785 526 691.624C526 690.464 526.461 689.351 527.281 688.531C528.102 687.71 529.215 687.249 530.375 687.249C530.9 687.249 532.991 686.366 534.737 684.371C535.147 683.901 535.654 683.524 536.222 683.266C536.79 683.008 537.407 682.875 538.031 682.875C538.655 682.875 539.272 683.008 539.84 683.266C540.408 683.524 540.915 683.901 541.325 684.371C541.627 684.716 543.443 687.249 545.687 687.249C547.932 687.249 549.752 684.712 550.049 684.366C550.46 683.897 550.966 683.521 551.534 683.264C552.102 683.006 552.718 682.873 553.341 682.873C553.965 682.873 554.581 683.006 555.149 683.264C555.717 683.521 556.223 683.897 556.633 684.366C556.94 684.716 558.821 687.249 561 687.249C563.187 687.249 565.064 684.712 565.366 684.366C565.776 683.898 566.282 683.522 566.85 683.265C567.417 683.008 568.033 682.875 568.656 682.875C569.279 682.875 569.895 683.008 570.462 683.265C571.029 683.522 571.535 683.898 571.946 684.366C572.252 684.712 574.133 687.249 576.312 687.249C578.495 687.249 580.376 684.712 580.678 684.366C581.089 683.898 581.595 683.522 582.162 683.265C582.729 683.008 583.345 682.875 583.968 682.875C584.591 682.875 585.207 683.008 585.774 683.265C586.342 683.522 586.848 683.898 587.258 684.366ZM569.75 626C570.64 626 571.509 626.272 572.241 626.78C572.972 627.287 573.532 628.006 573.845 628.839L580.687 647.875H591.624C592.212 647.874 592.793 647.992 593.334 648.221C593.874 648.451 594.363 648.786 594.772 649.208C595.18 649.63 595.499 650.13 595.71 650.679C595.921 651.227 596.019 651.812 595.999 652.398C595.662 662.133 591.406 671.255 584.283 677.432C583.406 678.192 582.263 678.572 581.105 678.49C579.947 678.407 578.87 677.867 578.11 676.99C577.35 676.113 576.97 674.97 577.053 673.812C577.135 672.654 577.675 671.577 578.552 670.817C582.643 667.273 585.049 663.235 586.711 656.625C568.07 656.537 549.292 656.537 530.375 656.625C528.131 656.625 526 654.494 526 652.25C526 651.178 526.394 650.144 527.106 649.343C527.818 648.542 528.799 648.031 529.863 647.905L571.661 647.875L566.468 634.75H530.375C528.131 634.75 526 632.619 526 630.375C526 629.303 526.394 628.269 527.106 627.468C527.818 626.668 528.799 626.156 529.863 626.031L569.75 626ZM569.75 661C570.91 661 572.023 661.461 572.843 662.281C573.664 663.102 574.125 664.214 574.125 665.375C574.125 666.535 573.664 667.648 572.843 668.468C572.023 669.289 570.91 669.75 569.75 669.75C568.589 669.75 567.476 669.289 566.656 668.468C565.836 667.648 565.375 666.535 565.375 665.375C565.375 664.214 565.836 663.102 566.656 662.281C567.476 661.461 568.589 661 569.75 661ZM552.25 661C553.41 661 554.523 661.461 555.343 662.281C556.164 663.102 556.625 664.214 556.625 665.375C556.625 666.535 556.164 667.648 555.343 668.468C554.523 669.289 553.41 669.75 552.25 669.75C551.089 669.75 549.977 669.289 549.156 668.468C548.336 667.648 547.875 666.535 547.875 665.375C547.875 664.214 548.336 663.102 549.156 662.281C549.977 661.461 551.089 661 552.25 661ZM534.75 661C535.91 661 537.023 661.461 537.843 662.281C538.664 663.102 539.125 664.214 539.125 665.375C539.125 666.535 538.664 667.648 537.843 668.468C537.023 669.289 535.91 669.75 534.75 669.75C533.59 669.75 532.477 669.289 531.656 668.468C530.836 667.648 530.375 666.535 530.375 665.375C530.375 664.214 530.836 663.102 531.656 662.281C532.477 661.461 533.59 661 534.75 661Z" fill="black"/>
</g>
</g>
</g>
<defs>
<clipPath id="clip0_762_593">
<rect width="3300" height="2200" fill="white"/>
</clipPath>
</defs>
</svg>
