<svg width="3300" height="2200" viewBox="0 0 3300 2200" fill="none" xmlns="http://www.w3.org/2000/svg">
<g id="ice" clip-path="url(#clip0_761_201)">
<g id="Notes">
<path id="artboard" d="M3300 0H0V2200H3300V0Z" fill="white"/>
<path id="Vector" d="M263 292H3036" stroke="black" stroke-width="0.5"/>
<text id="Weight/Scale Variations" fill="black" xml:space="preserve" style="white-space: pre" font-family="Inter" font-size="13" font-weight="bold" letter-spacing="0em"><tspan x="263" y="321.727">Weight/Scale Variations</tspan></text>
<text id="Ultralight" fill="black" xml:space="preserve" style="white-space: pre" font-family="Inter" font-size="13" letter-spacing="0em"><tspan x="531.211" y="321.727">Ultralight</tspan></text>
<text id="Thin" fill="black" xml:space="preserve" style="white-space: pre" font-family="Inter" font-size="13" letter-spacing="0em"><tspan x="842.922" y="321.727">Thin</tspan></text>
<text id="Light" fill="black" xml:space="preserve" style="white-space: pre" font-family="Inter" font-size="13" letter-spacing="0em"><tspan x="1137.63" y="321.727">Light</tspan></text>
<text id="Regular" fill="black" xml:space="preserve" style="white-space: pre" font-family="Inter" font-size="13" letter-spacing="0em"><tspan x="1426.34" y="321.727">Regular</tspan></text>
<text id="Medium" fill="black" xml:space="preserve" style="white-space: pre" font-family="Inter" font-size="13" letter-spacing="0em"><tspan x="1721.56" y="321.727">Medium</tspan></text>
<text id="Semibold" fill="black" xml:space="preserve" style="white-space: pre" font-family="Inter" font-size="13" letter-spacing="0em"><tspan x="2014.27" y="321.727">Semibold</tspan></text>
<text id="Bold" fill="black" xml:space="preserve" style="white-space: pre" font-family="Inter" font-size="13" letter-spacing="0em"><tspan x="2325.98" y="321.727">Bold</tspan></text>
<text id="Heavy" fill="black" xml:space="preserve" style="white-space: pre" font-family="Inter" font-size="13" letter-spacing="0em"><tspan x="2617.19" y="321.727">Heavy</tspan></text>
<text id="Black" fill="black" xml:space="preserve" style="white-space: pre" font-family="Inter" font-size="13" letter-spacing="0em"><tspan x="2916.4" y="321.727">Black</tspan></text>
<path id="Vector_2" d="M263 1903H3036" stroke="black" stroke-width="0.5"/>
<g id="Group">
<path id="Vector_3" d="M272.248 1933.83C276.555 1933.83 280.139 1930.26 280.139 1925.95C280.139 1921.64 276.545 1918.07 272.238 1918.07C267.941 1918.07 264.367 1921.64 264.367 1925.95C264.367 1930.26 267.951 1933.83 272.248 1933.83ZM272.248 1932.35C268.703 1932.35 265.871 1929.5 265.871 1925.95C265.871 1922.39 268.693 1919.55 272.238 1919.55C275.793 1919.55 278.644 1922.39 278.644 1925.95C278.644 1929.5 275.803 1932.35 272.248 1932.35ZM268.654 1925.95C268.654 1926.38 268.957 1926.67 269.406 1926.67H271.506V1928.79C271.506 1929.23 271.799 1929.53 272.229 1929.53C272.678 1929.53 272.971 1929.23 272.971 1928.79V1926.67H275.09C275.529 1926.67 275.832 1926.38 275.832 1925.95C275.832 1925.51 275.529 1925.21 275.09 1925.21H272.971V1923.1C272.971 1922.65 272.678 1922.35 272.229 1922.35C271.799 1922.35 271.506 1922.65 271.506 1923.1V1925.21H269.406C268.957 1925.21 268.654 1925.51 268.654 1925.95Z" fill="black"/>
</g>
<g id="Group_2">
<path id="Vector_4" d="M293.576 1935.91C299.025 1935.91 303.537 1931.39 303.537 1925.95C303.537 1920.5 299.016 1915.99 293.566 1915.99C288.127 1915.99 283.615 1920.5 283.615 1925.95C283.615 1931.39 288.137 1935.91 293.576 1935.91ZM293.576 1934.25C288.967 1934.25 285.285 1930.56 285.285 1925.95C285.285 1921.34 288.957 1917.65 293.566 1917.65C298.176 1917.65 301.877 1921.34 301.877 1925.95C301.877 1930.56 298.186 1934.25 293.576 1934.25ZM289.045 1925.95C289.045 1926.43 289.377 1926.75 289.875 1926.75H292.746V1929.63C292.746 1930.12 293.078 1930.46 293.557 1930.46C294.045 1930.46 294.387 1930.13 294.387 1929.63V1926.75H297.268C297.756 1926.75 298.098 1926.43 298.098 1925.95C298.098 1925.46 297.756 1925.12 297.268 1925.12H294.387V1922.25C294.387 1921.75 294.045 1921.41 293.557 1921.41C293.078 1921.41 292.746 1921.75 292.746 1922.25V1925.12H289.875C289.377 1925.12 289.045 1925.46 289.045 1925.95Z" fill="black"/>
</g>
<g id="Group_3">
<path id="Vector_5" d="M320.617 1938.66C327.58 1938.66 333.342 1932.9 333.342 1925.95C333.342 1918.99 327.57 1913.22 320.607 1913.22C313.654 1913.22 307.902 1918.99 307.902 1925.95C307.902 1932.9 313.664 1938.66 320.617 1938.66ZM320.617 1936.85C314.582 1936.85 309.729 1931.98 309.729 1925.95C309.729 1919.9 314.572 1915.05 320.607 1915.05C326.652 1915.05 331.516 1919.9 331.516 1925.95C331.516 1931.98 326.662 1936.85 320.617 1936.85ZM314.846 1925.95C314.846 1926.47 315.217 1926.83 315.764 1926.83H319.709V1930.78C319.709 1931.32 320.08 1931.7 320.598 1931.7C321.135 1931.7 321.506 1931.33 321.506 1930.78V1926.83H325.461C325.998 1926.83 326.379 1926.47 326.379 1925.95C326.379 1925.4 326.008 1925.03 325.461 1925.03H321.506V1921.09C321.506 1920.54 321.135 1920.16 320.598 1920.16C320.08 1920.16 319.709 1920.54 319.709 1921.09V1925.03H315.764C315.217 1925.03 314.846 1925.4 314.846 1925.95Z" fill="black"/>
</g>
<text id="Design Variations" fill="black" xml:space="preserve" style="white-space: pre" font-family="Inter" font-size="13" font-weight="bold" letter-spacing="0em"><tspan x="263" y="1952.73">Design Variations</tspan></text>
<text id="Symbols are supported in up to nine weights and three scales." fill="black" xml:space="preserve" style="white-space: pre" font-family="Inter" font-size="13" letter-spacing="0em"><tspan x="263" y="1970.73">Symbols are supported in up to nine weights and three scales.</tspan></text>
<text id="For optimal layout with text and other symbols, vertically align" fill="black" xml:space="preserve" style="white-space: pre" font-family="Inter" font-size="13" letter-spacing="0em"><tspan x="263" y="1988.73">For optimal layout with text and other symbols, vertically align</tspan></text>
<text id="symbols with the adjacent text." fill="black" xml:space="preserve" style="white-space: pre" font-family="Inter" font-size="13" letter-spacing="0em"><tspan x="263" y="2006.73">symbols with the adjacent text.</tspan></text>
<path id="Vector_6" d="M776 1919V1933" stroke="#00AEEF" stroke-width="0.5"/>
<g id="Group_4">
<path id="Vector_7" d="M779.311 1933.16C779.828 1933.16 780.082 1932.96 780.268 1932.41L781.527 1928.97H787.289L788.549 1932.41C788.734 1932.96 788.988 1933.16 789.496 1933.16C790.014 1933.16 790.346 1932.84 790.346 1932.36C790.346 1932.19 790.316 1932.03 790.238 1931.83L785.658 1919.63C785.434 1919.04 785.033 1918.73 784.408 1918.73C783.803 1918.73 783.393 1919.03 783.178 1919.62L778.598 1931.84C778.52 1932.04 778.49 1932.2 778.49 1932.37C778.49 1932.85 778.803 1933.16 779.311 1933.16ZM782.006 1927.48L784.379 1920.91H784.428L786.801 1927.48H782.006Z" fill="black"/>
</g>
<path id="Vector_8" d="M793.197 1919V1933" stroke="#00AEEF" stroke-width="0.5"/>
<text id="Margins" fill="black" xml:space="preserve" style="white-space: pre" font-family="Inter" font-size="13" font-weight="bold" letter-spacing="0em"><tspan x="776" y="1952.73">Margins</tspan></text>
<text id="Leading and trailing margins on the left and right side of each symbol" fill="black" xml:space="preserve" style="white-space: pre" font-family="Inter" font-size="13" letter-spacing="0em"><tspan x="776" y="1970.73">Leading and trailing margins on the left and right side of each symbol</tspan></text>
<text id="can be adjusted by modifying the x-location of the margin guidelines." fill="black" xml:space="preserve" style="white-space: pre" font-family="Inter" font-size="13" letter-spacing="0em"><tspan x="776" y="1988.73">can be adjusted by modifying the x-location of the margin guidelines.</tspan></text>
<text id="Modifications are automatically applied proportionally to all" fill="black" xml:space="preserve" style="white-space: pre" font-family="Inter" font-size="13" letter-spacing="0em"><tspan x="776" y="2006.73">Modifications are automatically applied proportionally to all</tspan></text>
<text id="scales and weights." fill="black" xml:space="preserve" style="white-space: pre" font-family="Inter" font-size="13" letter-spacing="0em"><tspan x="776" y="2024.73">scales and weights.</tspan></text>
<g id="Group_5">
<path id="Vector_9" d="M1291.84 1934.87L1293.54 1936.57C1294.4 1937.44 1295.39 1937.38 1296.31 1936.36L1307.01 1924.57L1306.04 1923.6L1295.43 1935.28C1295.07 1935.68 1294.74 1935.77 1294.27 1935.3L1293.1 1934.14C1292.63 1933.68 1292.74 1933.34 1293.14 1932.98L1304.62 1922.18L1303.64 1921.21L1292.05 1932.1C1291.06 1933.02 1290.98 1934 1291.84 1934.87ZM1298.26 1916.67C1297.84 1917.08 1297.81 1917.66 1298.04 1918.05C1298.28 1918.41 1298.74 1918.64 1299.38 1918.48C1300.85 1918.14 1302.37 1918.08 1303.79 1919.02L1303.21 1920.47C1302.87 1921.3 1303.04 1921.89 1303.58 1922.43L1305.87 1924.75C1306.36 1925.24 1306.77 1925.26 1307.34 1925.16L1308.4 1924.96L1309.07 1925.64L1309.03 1926.19C1308.99 1926.69 1309.12 1927.07 1309.61 1927.55L1310.37 1928.29C1310.85 1928.77 1311.46 1928.8 1311.93 1928.33L1314.84 1925.41C1315.31 1924.94 1315.29 1924.35 1314.81 1923.87L1314.04 1923.11C1313.56 1922.63 1313.19 1922.47 1312.71 1922.51L1312.13 1922.56L1311.49 1921.93L1311.73 1920.8C1311.86 1920.24 1311.71 1919.8 1311.12 1919.21L1308.92 1917.02C1305.58 1913.7 1301.15 1913.78 1298.26 1916.67ZM1299.75 1917.04C1302.18 1915.27 1305.47 1915.57 1307.7 1917.79L1310.13 1920.21C1310.37 1920.44 1310.41 1920.63 1310.34 1920.97L1310.02 1922.45L1311.52 1923.94L1312.51 1923.88C1312.76 1923.87 1312.84 1923.89 1313.03 1924.08L1313.61 1924.66L1311.17 1927.1L1310.59 1926.53C1310.4 1926.33 1310.37 1926.25 1310.38 1925.99L1310.45 1925.01L1308.95 1923.53L1307.43 1923.78C1307.11 1923.85 1306.96 1923.82 1306.71 1923.59L1304.71 1921.58C1304.46 1921.35 1304.43 1921.18 1304.59 1920.81L1305.46 1918.72C1303.9 1917.27 1301.87 1916.64 1299.84 1917.24C1299.68 1917.28 1299.62 1917.15 1299.75 1917.04Z" fill="black"/>
</g>
<text id="Exporting" fill="black" xml:space="preserve" style="white-space: pre" font-family="Inter" font-size="13" font-weight="bold" letter-spacing="0em"><tspan x="1289" y="1952.73">Exporting</tspan></text>
<text id="Symbols should be outlined when exporting to ensure the" fill="black" xml:space="preserve" style="white-space: pre" font-family="Inter" font-size="13" letter-spacing="0em"><tspan x="1289" y="1970.73">Symbols should be outlined when exporting to ensure the</tspan></text>
<text id="design is preserved when submitting to Xcode." fill="black" xml:space="preserve" style="white-space: pre" font-family="Inter" font-size="13" letter-spacing="0em"><tspan x="1289" y="1988.73">design is preserved when submitting to Xcode.</tspan></text>
<text id="template-version" fill="black" xml:space="preserve" style="white-space: pre" font-family="Inter" font-size="13" letter-spacing="0em"><tspan x="2945" y="1932.73">Template v.4.0</tspan></text>
<text id="Requires Xcode 14 or greater" fill="black" xml:space="preserve" style="white-space: pre" font-family="Inter" font-size="13" letter-spacing="0em"><tspan x="2857" y="1950.73">Requires Xcode 14 or greater</tspan></text>
<text id="descriptive-name" fill="black" xml:space="preserve" style="white-space: pre" font-family="Inter" font-size="13" letter-spacing="0em"><tspan x="2809" y="1968.73">Generated from custom.x.squareroot</tspan></text>
<text id="Typeset at 100 points" fill="black" xml:space="preserve" style="white-space: pre" font-family="Inter" font-size="13" letter-spacing="0em"><tspan x="2903" y="1986.73">Typeset at 100 points</tspan></text>
<text id="Small" fill="black" xml:space="preserve" style="white-space: pre" font-family="Inter" font-size="13" letter-spacing="0em"><tspan x="263" y="725.727">Small</tspan></text>
<text id="Medium_2" fill="black" xml:space="preserve" style="white-space: pre" font-family="Inter" font-size="13" letter-spacing="0em"><tspan x="263" y="1155.73">Medium</tspan></text>
<text id="Large" fill="black" xml:space="preserve" style="white-space: pre" font-family="Inter" font-size="13" letter-spacing="0em"><tspan x="263" y="1585.73">Large</tspan></text>
</g>
<g id="Guides">
<g id="H-reference">
<path id="Vector_10" d="M339.994 696H342.638L368.329 628.868H369.031V625.541H367.123L339.994 696ZM350.689 671.52H385.982L385.232 669.272H351.439L350.689 671.52ZM394.12 696H396.764L369.639 625.541H368.433V628.868L394.12 696Z" fill="#27AAE1"/>
</g>
<path id="Baseline-S" d="M263 696H3036" stroke="#27AAE1" stroke-width="0.5"/>
<path id="Capline-S" d="M263 625.541H3036" stroke="#27AAE1" stroke-width="0.5"/>
<g id="H-reference_2">
<path id="Vector_11" d="M339.994 1126H342.638L368.329 1058.87H369.031V1055.54H367.123L339.994 1126ZM350.689 1101.52H385.982L385.232 1099.27H351.439L350.689 1101.52ZM394.12 1126H396.764L369.639 1055.54H368.433V1058.87L394.12 1126Z" fill="#27AAE1"/>
</g>
<path id="Baseline-M" d="M263 1126H3036" stroke="#27AAE1" stroke-width="0.5"/>
<path id="Capline-M" d="M263 1055.54H3036" stroke="#27AAE1" stroke-width="0.5"/>
<g id="H-reference_3">
<path id="Vector_12" d="M339.994 1556H342.638L368.329 1488.87H369.031V1485.54H367.123L339.994 1556ZM350.689 1531.52H385.982L385.232 1529.27H351.439L350.689 1531.52ZM394.12 1556H396.764L369.639 1485.54H368.433V1488.87L394.12 1556Z" fill="#27AAE1"/>
</g>
<path id="Baseline-L" d="M263 1556H3036" stroke="#27AAE1" stroke-width="0.5"/>
<path id="Capline-L" d="M263 1485.54H3036" stroke="#27AAE1" stroke-width="0.5"/>
<path id="left-margin-Ultralight-S" d="M518.33 600.785V720.121" stroke="#00AEEF" stroke-width="0.5"/>
<path id="right-margin-Ultralight-S" d="M601.092 600.785V720.121" stroke="#00AEEF" stroke-width="0.5"/>
<path id="left-margin-Regular-S" d="M1396.48 600.785V720.121" stroke="#00AEEF" stroke-width="0.5"/>
<path id="right-margin-Regular-S" d="M1503.21 600.785V720.121" stroke="#00AEEF" stroke-width="0.5"/>
<path id="left-margin-Black-S" d="M2879.01 600.785V720.121" stroke="#00AEEF" stroke-width="0.5"/>
<path id="right-margin-Black-S" d="M2987.79 600.785V720.121" stroke="#00AEEF" stroke-width="0.5"/>
</g>
<g id="Symbols">
<g id="Black-S">
<path id="Vector_13" fill-rule="evenodd" clip-rule="evenodd" d="M2942.06 696H2924.97C2924 696 2923.06 695.662 2922.3 695.043C2921.55 694.424 2921.02 693.559 2920.8 692.592C2918.24 690.733 2916.02 687.919 2914.32 683.754C2917.32 685.959 2919.45 687.46 2920.7 688.252C2922.58 689.433 2924.96 690.304 2927.79 690.496H2939.24C2941.75 690.33 2944.18 689.561 2946.34 688.252C2947.73 687.386 2950.19 685.627 2953.74 682.984C2951.96 687.372 2949.39 690.781 2946.16 692.868C2945.52 694.954 2944.16 696 2942.06 696ZM2933.4 626C2949.14 626 2956.79 636.946 2956.99 652.276L2957 661.061C2957 664.474 2956.85 668.696 2956.37 672.489C2954.82 673.871 2952.89 675.446 2950.58 677.205C2948.28 678.968 2945.94 680.661 2943.57 682.28C2941.97 683.359 2940.1 683.946 2938.18 683.969H2928.85C2926.82 683.969 2924.8 683.203 2923.46 682.28C2921.09 680.634 2918.75 678.942 2916.44 677.205C2914.78 675.945 2913.15 674.635 2911.56 673.276C2910.52 667.536 2910 663.459 2910 661.035V652.276C2910 636.946 2917.3 626 2933.4 626ZM2925.71 666.11C2925.37 665.398 2924.78 664.837 2924.07 664.531C2923.36 664.225 2922.56 664.195 2921.82 664.445C2921.09 664.696 2920.46 665.212 2920.07 665.896C2919.68 666.58 2919.54 667.386 2919.69 668.166L2922.09 675.577C2922.44 676.29 2923.02 676.851 2923.73 677.157C2924.45 677.463 2925.25 677.493 2925.98 677.242C2926.72 676.991 2927.34 676.476 2927.73 675.792C2928.13 675.108 2928.26 674.301 2928.12 673.521L2925.71 666.11ZM2945.21 664.448C2944.47 664.197 2943.67 664.227 2942.96 664.532C2942.25 664.838 2941.66 665.398 2941.32 666.11L2938.91 673.521C2938.77 674.301 2938.9 675.108 2939.3 675.792C2939.69 676.476 2940.31 676.991 2941.05 677.242C2941.78 677.493 2942.58 677.463 2943.3 677.157C2944.01 676.851 2944.59 676.29 2944.93 675.577L2947.34 668.166C2947.49 667.387 2947.35 666.58 2946.96 665.897C2946.56 665.213 2945.94 664.698 2945.21 664.448ZM2933.51 634.75C2928.58 634.75 2924.66 635.546 2921.75 637.139C2920.06 638.108 2918.68 639.575 2917.81 641.35C2916.94 643.125 2916.61 645.126 2916.86 647.096C2917.7 651.239 2918.23 653.702 2918.46 654.499C2919.14 656.887 2921.01 658.708 2923.33 659.311C2927.48 660.068 2930.87 660.453 2933.51 660.471C2936.16 660.488 2939.36 660.138 2943.12 659.429C2944.39 659.222 2945.58 658.648 2946.55 657.775C2947.52 656.903 2948.23 655.766 2948.59 654.499C2949.2 652.045 2949.73 649.57 2950.18 647.079C2950.72 643.299 2947.3 638.058 2944.48 636.732C2941.66 635.411 2938.01 634.75 2933.51 634.75Z" fill="black"/>
</g>
<g id="Regular-S">
<path id="Vector_14" fill-rule="evenodd" clip-rule="evenodd" d="M1459.06 696H1441.97C1441 696 1440.06 695.662 1439.3 695.043C1438.55 694.424 1438.02 693.559 1437.8 692.592C1435.24 690.733 1433.02 687.919 1431.32 683.754C1434.32 685.959 1436.45 687.46 1437.7 688.252C1439.58 689.433 1441.96 690.304 1444.79 690.496H1456.24C1458.75 690.33 1461.18 689.561 1463.34 688.252C1464.73 687.386 1467.19 685.627 1470.74 682.984C1468.96 687.372 1466.39 690.781 1463.16 692.868C1462.52 694.954 1461.16 696 1459.06 696ZM1450.4 626C1466.14 626 1473.79 636.946 1473.99 652.276L1474 661.061C1474 664.474 1473.85 668.696 1473.37 672.489C1471.82 673.871 1469.89 675.446 1467.58 677.205C1465.28 678.968 1462.94 680.661 1460.57 682.28C1458.97 683.359 1457.1 683.946 1455.18 683.969H1445.85C1443.82 683.969 1441.8 683.203 1440.46 682.28C1438.09 680.634 1435.75 678.942 1433.44 677.205C1431.78 675.945 1430.15 674.635 1428.56 673.276C1427.52 667.536 1427 663.459 1427 661.035V652.276C1427 636.946 1434.3 626 1450.4 626ZM1442.71 666.11C1442.37 665.398 1441.78 664.837 1441.07 664.531C1440.36 664.225 1439.56 664.195 1438.82 664.445C1438.09 664.696 1437.46 665.212 1437.07 665.896C1436.68 666.58 1436.54 667.386 1436.69 668.166L1439.09 675.577C1439.44 676.29 1440.02 676.851 1440.73 677.157C1441.45 677.463 1442.25 677.493 1442.98 677.242C1443.72 676.991 1444.34 676.476 1444.73 675.792C1445.13 675.108 1445.26 674.301 1445.12 673.521L1442.71 666.11ZM1462.21 664.448C1461.47 664.197 1460.67 664.227 1459.96 664.532C1459.25 664.838 1458.66 665.398 1458.32 666.11L1455.91 673.521C1455.77 674.301 1455.9 675.108 1456.3 675.792C1456.69 676.476 1457.31 676.991 1458.05 677.242C1458.78 677.493 1459.58 677.463 1460.3 677.157C1461.01 676.851 1461.59 676.29 1461.93 675.577L1464.34 668.166C1464.49 667.387 1464.35 666.58 1463.96 665.897C1463.56 665.213 1462.94 664.698 1462.21 664.448ZM1450.51 634.75C1445.58 634.75 1441.66 635.546 1438.75 637.139C1437.06 638.108 1435.68 639.575 1434.81 641.35C1433.94 643.125 1433.61 645.126 1433.86 647.096C1434.7 651.239 1435.23 653.702 1435.46 654.499C1436.14 656.887 1438.01 658.708 1440.33 659.311C1444.48 660.068 1447.87 660.453 1450.51 660.471C1453.16 660.488 1456.36 660.138 1460.12 659.429C1461.39 659.222 1462.58 658.648 1463.55 657.775C1464.52 656.903 1465.23 655.766 1465.59 654.499C1466.2 652.045 1466.73 649.57 1467.18 647.079C1467.72 643.299 1464.3 638.058 1461.48 636.732C1458.66 635.411 1455.01 634.75 1450.51 634.75Z" fill="black"/>
</g>
<g id="Ultralight-S">
<path id="Vector_15" fill-rule="evenodd" clip-rule="evenodd" d="M569.06 696H551.97C551.001 696 550.062 695.662 549.305 695.043C548.548 694.424 548.019 693.559 547.805 692.592C545.241 690.733 543.024 687.919 541.324 683.754C544.319 685.959 546.446 687.46 547.702 688.252C549.582 689.433 551.962 690.304 554.786 690.496H566.244C568.748 690.33 571.178 689.561 573.336 688.252C574.729 687.386 577.194 685.627 580.736 682.984C578.959 687.372 576.391 690.781 573.157 692.868C572.524 694.954 571.157 696 569.06 696ZM560.404 626C576.143 626 583.791 636.946 583.987 652.276L584 661.061C584 664.474 583.846 668.696 583.372 672.489C581.817 673.871 579.886 675.446 577.583 677.205C575.276 678.968 572.943 680.661 570.568 682.28C568.968 683.359 567.1 683.946 565.185 683.969H555.845C553.82 683.969 551.804 683.203 550.462 682.28C548.091 680.634 545.751 678.942 543.443 677.205C541.779 675.945 540.152 674.635 538.564 673.276C537.521 667.536 537 663.459 537 661.035V652.276C537.004 636.946 544.301 626 560.404 626ZM552.709 666.11C552.367 665.398 551.785 664.837 551.07 664.531C550.355 664.225 549.556 664.195 548.821 664.445C548.086 664.696 547.464 665.212 547.072 665.896C546.679 666.58 546.542 667.386 546.685 668.166L549.095 675.577C549.437 676.29 550.019 676.851 550.734 677.157C551.449 677.463 552.248 677.493 552.983 677.242C553.719 676.991 554.34 676.476 554.733 675.792C555.125 675.108 555.263 674.301 555.119 673.521L552.709 666.11ZM572.208 664.448C571.474 664.197 570.675 664.227 569.96 664.532C569.245 664.838 568.663 665.398 568.321 666.11L565.911 673.521C565.767 674.301 565.905 675.108 566.297 675.792C566.69 676.476 567.311 676.991 568.046 677.242C568.782 677.493 569.581 677.463 570.296 677.157C571.01 676.851 571.593 676.29 571.935 675.577L574.345 668.166C574.488 667.387 574.35 666.58 573.957 665.897C573.564 665.213 572.943 664.698 572.208 664.448ZM560.515 634.75C555.585 634.75 551.663 635.546 548.749 637.139C547.055 638.108 545.685 639.575 544.813 641.35C543.942 643.125 543.611 645.126 543.861 647.096C544.703 651.239 545.233 653.702 545.459 654.499C546.143 656.887 548.006 658.708 550.334 659.311C554.478 660.068 557.87 660.453 560.515 660.471C563.164 660.488 566.364 660.138 570.119 659.429C571.393 659.222 572.583 658.648 573.551 657.775C574.519 656.903 575.225 655.766 575.588 654.499C576.201 652.045 576.731 649.57 577.177 647.079C577.724 643.299 574.298 638.058 571.482 636.732C568.662 635.411 565.009 634.75 560.515 634.75Z" fill="black"/>
</g>
</g>
</g>
<defs>
<clipPath id="clip0_761_201">
<rect width="3300" height="2200" fill="white"/>
</clipPath>
</defs>
</svg>
