<svg width="3300" height="2200" viewBox="0 0 3300 2200" fill="none" xmlns="http://www.w3.org/2000/svg">
<g id="re" clip-path="url(#clip0_762_304)">
<g id="Notes">
<path id="artboard" d="M3300 0H0V2200H3300V0Z" fill="white"/>
<path id="Vector" d="M263 292H3036" stroke="black" stroke-width="0.5"/>
<text id="Weight/Scale Variations" fill="black" xml:space="preserve" style="white-space: pre" font-family="Inter" font-size="13" font-weight="bold" letter-spacing="0em"><tspan x="263" y="321.727">Weight/Scale Variations</tspan></text>
<text id="Ultralight" fill="black" xml:space="preserve" style="white-space: pre" font-family="Inter" font-size="13" letter-spacing="0em"><tspan x="531.211" y="321.727">Ultralight</tspan></text>
<text id="Thin" fill="black" xml:space="preserve" style="white-space: pre" font-family="Inter" font-size="13" letter-spacing="0em"><tspan x="842.922" y="321.727">Thin</tspan></text>
<text id="Light" fill="black" xml:space="preserve" style="white-space: pre" font-family="Inter" font-size="13" letter-spacing="0em"><tspan x="1137.63" y="321.727">Light</tspan></text>
<text id="Regular" fill="black" xml:space="preserve" style="white-space: pre" font-family="Inter" font-size="13" letter-spacing="0em"><tspan x="1426.34" y="321.727">Regular</tspan></text>
<text id="Medium" fill="black" xml:space="preserve" style="white-space: pre" font-family="Inter" font-size="13" letter-spacing="0em"><tspan x="1721.56" y="321.727">Medium</tspan></text>
<text id="Semibold" fill="black" xml:space="preserve" style="white-space: pre" font-family="Inter" font-size="13" letter-spacing="0em"><tspan x="2014.27" y="321.727">Semibold</tspan></text>
<text id="Bold" fill="black" xml:space="preserve" style="white-space: pre" font-family="Inter" font-size="13" letter-spacing="0em"><tspan x="2325.98" y="321.727">Bold</tspan></text>
<text id="Heavy" fill="black" xml:space="preserve" style="white-space: pre" font-family="Inter" font-size="13" letter-spacing="0em"><tspan x="2617.19" y="321.727">Heavy</tspan></text>
<text id="Black" fill="black" xml:space="preserve" style="white-space: pre" font-family="Inter" font-size="13" letter-spacing="0em"><tspan x="2916.4" y="321.727">Black</tspan></text>
<path id="Vector_2" d="M263 1903H3036" stroke="black" stroke-width="0.5"/>
<g id="Group">
<path id="Vector_3" d="M272.248 1933.83C276.555 1933.83 280.139 1930.26 280.139 1925.95C280.139 1921.64 276.545 1918.07 272.238 1918.07C267.941 1918.07 264.367 1921.64 264.367 1925.95C264.367 1930.26 267.951 1933.83 272.248 1933.83ZM272.248 1932.35C268.703 1932.35 265.871 1929.5 265.871 1925.95C265.871 1922.39 268.693 1919.55 272.238 1919.55C275.793 1919.55 278.644 1922.39 278.644 1925.95C278.644 1929.5 275.803 1932.35 272.248 1932.35ZM268.654 1925.95C268.654 1926.38 268.957 1926.67 269.406 1926.67H271.506V1928.79C271.506 1929.23 271.799 1929.53 272.229 1929.53C272.678 1929.53 272.971 1929.23 272.971 1928.79V1926.67H275.09C275.529 1926.67 275.832 1926.38 275.832 1925.95C275.832 1925.51 275.529 1925.21 275.09 1925.21H272.971V1923.1C272.971 1922.65 272.678 1922.35 272.229 1922.35C271.799 1922.35 271.506 1922.65 271.506 1923.1V1925.21H269.406C268.957 1925.21 268.654 1925.51 268.654 1925.95Z" fill="black"/>
</g>
<g id="Group_2">
<path id="Vector_4" d="M293.576 1935.91C299.025 1935.91 303.537 1931.39 303.537 1925.95C303.537 1920.5 299.016 1915.99 293.566 1915.99C288.127 1915.99 283.615 1920.5 283.615 1925.95C283.615 1931.39 288.137 1935.91 293.576 1935.91ZM293.576 1934.25C288.967 1934.25 285.285 1930.56 285.285 1925.95C285.285 1921.34 288.957 1917.65 293.566 1917.65C298.176 1917.65 301.877 1921.34 301.877 1925.95C301.877 1930.56 298.186 1934.25 293.576 1934.25ZM289.045 1925.95C289.045 1926.43 289.377 1926.75 289.875 1926.75H292.746V1929.63C292.746 1930.12 293.078 1930.46 293.557 1930.46C294.045 1930.46 294.387 1930.13 294.387 1929.63V1926.75H297.268C297.756 1926.75 298.098 1926.43 298.098 1925.95C298.098 1925.46 297.756 1925.12 297.268 1925.12H294.387V1922.25C294.387 1921.75 294.045 1921.41 293.557 1921.41C293.078 1921.41 292.746 1921.75 292.746 1922.25V1925.12H289.875C289.377 1925.12 289.045 1925.46 289.045 1925.95Z" fill="black"/>
</g>
<g id="Group_3">
<path id="Vector_5" d="M320.617 1938.66C327.58 1938.66 333.342 1932.9 333.342 1925.95C333.342 1918.99 327.57 1913.22 320.607 1913.22C313.654 1913.22 307.902 1918.99 307.902 1925.95C307.902 1932.9 313.664 1938.66 320.617 1938.66ZM320.617 1936.85C314.582 1936.85 309.729 1931.98 309.729 1925.95C309.729 1919.9 314.572 1915.05 320.607 1915.05C326.652 1915.05 331.516 1919.9 331.516 1925.95C331.516 1931.98 326.662 1936.85 320.617 1936.85ZM314.846 1925.95C314.846 1926.47 315.217 1926.83 315.764 1926.83H319.709V1930.78C319.709 1931.32 320.08 1931.7 320.598 1931.7C321.135 1931.7 321.506 1931.33 321.506 1930.78V1926.83H325.461C325.998 1926.83 326.379 1926.47 326.379 1925.95C326.379 1925.4 326.008 1925.03 325.461 1925.03H321.506V1921.09C321.506 1920.54 321.135 1920.16 320.598 1920.16C320.08 1920.16 319.709 1920.54 319.709 1921.09V1925.03H315.764C315.217 1925.03 314.846 1925.4 314.846 1925.95Z" fill="black"/>
</g>
<text id="Design Variations" fill="black" xml:space="preserve" style="white-space: pre" font-family="Inter" font-size="13" font-weight="bold" letter-spacing="0em"><tspan x="263" y="1952.73">Design Variations</tspan></text>
<text id="Symbols are supported in up to nine weights and three scales." fill="black" xml:space="preserve" style="white-space: pre" font-family="Inter" font-size="13" letter-spacing="0em"><tspan x="263" y="1970.73">Symbols are supported in up to nine weights and three scales.</tspan></text>
<text id="For optimal layout with text and other symbols, vertically align" fill="black" xml:space="preserve" style="white-space: pre" font-family="Inter" font-size="13" letter-spacing="0em"><tspan x="263" y="1988.73">For optimal layout with text and other symbols, vertically align</tspan></text>
<text id="symbols with the adjacent text." fill="black" xml:space="preserve" style="white-space: pre" font-family="Inter" font-size="13" letter-spacing="0em"><tspan x="263" y="2006.73">symbols with the adjacent text.</tspan></text>
<path id="Vector_6" d="M776 1919V1933" stroke="#00AEEF" stroke-width="0.5"/>
<g id="Group_4">
<path id="Vector_7" d="M779.311 1933.16C779.828 1933.16 780.082 1932.96 780.268 1932.41L781.527 1928.97H787.289L788.549 1932.41C788.734 1932.96 788.988 1933.16 789.496 1933.16C790.014 1933.16 790.346 1932.84 790.346 1932.36C790.346 1932.19 790.316 1932.03 790.238 1931.83L785.658 1919.63C785.434 1919.04 785.033 1918.73 784.408 1918.73C783.803 1918.73 783.393 1919.03 783.178 1919.62L778.598 1931.84C778.52 1932.04 778.49 1932.2 778.49 1932.37C778.49 1932.85 778.803 1933.16 779.311 1933.16ZM782.006 1927.48L784.379 1920.91H784.428L786.801 1927.48H782.006Z" fill="black"/>
</g>
<path id="Vector_8" d="M793.197 1919V1933" stroke="#00AEEF" stroke-width="0.5"/>
<text id="Margins" fill="black" xml:space="preserve" style="white-space: pre" font-family="Inter" font-size="13" font-weight="bold" letter-spacing="0em"><tspan x="776" y="1952.73">Margins</tspan></text>
<text id="Leading and trailing margins on the left and right side of each symbol" fill="black" xml:space="preserve" style="white-space: pre" font-family="Inter" font-size="13" letter-spacing="0em"><tspan x="776" y="1970.73">Leading and trailing margins on the left and right side of each symbol</tspan></text>
<text id="can be adjusted by modifying the x-location of the margin guidelines." fill="black" xml:space="preserve" style="white-space: pre" font-family="Inter" font-size="13" letter-spacing="0em"><tspan x="776" y="1988.73">can be adjusted by modifying the x-location of the margin guidelines.</tspan></text>
<text id="Modifications are automatically applied proportionally to all" fill="black" xml:space="preserve" style="white-space: pre" font-family="Inter" font-size="13" letter-spacing="0em"><tspan x="776" y="2006.73">Modifications are automatically applied proportionally to all</tspan></text>
<text id="scales and weights." fill="black" xml:space="preserve" style="white-space: pre" font-family="Inter" font-size="13" letter-spacing="0em"><tspan x="776" y="2024.73">scales and weights.</tspan></text>
<g id="Group_5">
<path id="Vector_9" d="M1291.84 1934.87L1293.54 1936.57C1294.4 1937.44 1295.39 1937.38 1296.31 1936.36L1307.01 1924.57L1306.04 1923.6L1295.43 1935.28C1295.07 1935.68 1294.74 1935.77 1294.27 1935.3L1293.1 1934.14C1292.63 1933.68 1292.74 1933.34 1293.14 1932.98L1304.62 1922.18L1303.64 1921.21L1292.05 1932.1C1291.06 1933.02 1290.98 1934 1291.84 1934.87ZM1298.26 1916.67C1297.84 1917.08 1297.81 1917.66 1298.04 1918.05C1298.28 1918.41 1298.74 1918.64 1299.38 1918.48C1300.85 1918.14 1302.37 1918.08 1303.79 1919.02L1303.21 1920.47C1302.87 1921.3 1303.04 1921.89 1303.58 1922.43L1305.87 1924.75C1306.36 1925.24 1306.77 1925.26 1307.34 1925.16L1308.4 1924.96L1309.07 1925.64L1309.03 1926.19C1308.99 1926.69 1309.12 1927.07 1309.61 1927.55L1310.37 1928.29C1310.85 1928.77 1311.46 1928.8 1311.93 1928.33L1314.84 1925.41C1315.31 1924.94 1315.29 1924.35 1314.81 1923.87L1314.04 1923.11C1313.56 1922.63 1313.19 1922.47 1312.71 1922.51L1312.13 1922.56L1311.49 1921.93L1311.73 1920.8C1311.86 1920.24 1311.71 1919.8 1311.12 1919.21L1308.92 1917.02C1305.58 1913.7 1301.15 1913.78 1298.26 1916.67ZM1299.75 1917.04C1302.18 1915.27 1305.47 1915.57 1307.7 1917.8L1310.13 1920.21C1310.37 1920.44 1310.41 1920.63 1310.34 1920.97L1310.02 1922.45L1311.52 1923.94L1312.51 1923.88C1312.76 1923.87 1312.84 1923.89 1313.03 1924.08L1313.61 1924.66L1311.17 1927.1L1310.59 1926.53C1310.4 1926.33 1310.37 1926.25 1310.38 1925.99L1310.45 1925.01L1308.95 1923.53L1307.43 1923.78C1307.11 1923.85 1306.96 1923.82 1306.71 1923.59L1304.71 1921.58C1304.46 1921.35 1304.43 1921.18 1304.59 1920.81L1305.46 1918.72C1303.9 1917.27 1301.87 1916.64 1299.84 1917.24C1299.68 1917.28 1299.62 1917.15 1299.75 1917.04Z" fill="black"/>
</g>
<text id="Exporting" fill="black" xml:space="preserve" style="white-space: pre" font-family="Inter" font-size="13" font-weight="bold" letter-spacing="0em"><tspan x="1289" y="1952.73">Exporting</tspan></text>
<text id="Symbols should be outlined when exporting to ensure the" fill="black" xml:space="preserve" style="white-space: pre" font-family="Inter" font-size="13" letter-spacing="0em"><tspan x="1289" y="1970.73">Symbols should be outlined when exporting to ensure the</tspan></text>
<text id="design is preserved when submitting to Xcode." fill="black" xml:space="preserve" style="white-space: pre" font-family="Inter" font-size="13" letter-spacing="0em"><tspan x="1289" y="1988.73">design is preserved when submitting to Xcode.</tspan></text>
<text id="template-version" fill="black" xml:space="preserve" style="white-space: pre" font-family="Inter" font-size="13" letter-spacing="0em"><tspan x="2945" y="1932.73">Template v.4.0</tspan></text>
<text id="Requires Xcode 14 or greater" fill="black" xml:space="preserve" style="white-space: pre" font-family="Inter" font-size="13" letter-spacing="0em"><tspan x="2857" y="1950.73">Requires Xcode 14 or greater</tspan></text>
<text id="descriptive-name" fill="black" xml:space="preserve" style="white-space: pre" font-family="Inter" font-size="13" letter-spacing="0em"><tspan x="2809" y="1968.73">Generated from custom.x.squareroot</tspan></text>
<text id="Typeset at 100 points" fill="black" xml:space="preserve" style="white-space: pre" font-family="Inter" font-size="13" letter-spacing="0em"><tspan x="2903" y="1986.73">Typeset at 100 points</tspan></text>
<text id="Small" fill="black" xml:space="preserve" style="white-space: pre" font-family="Inter" font-size="13" letter-spacing="0em"><tspan x="263" y="725.727">Small</tspan></text>
<text id="Medium_2" fill="black" xml:space="preserve" style="white-space: pre" font-family="Inter" font-size="13" letter-spacing="0em"><tspan x="263" y="1155.73">Medium</tspan></text>
<text id="Large" fill="black" xml:space="preserve" style="white-space: pre" font-family="Inter" font-size="13" letter-spacing="0em"><tspan x="263" y="1585.73">Large</tspan></text>
</g>
<g id="Guides">
<g id="H-reference">
<path id="Vector_10" d="M339.994 696H342.638L368.329 628.868H369.031V625.541H367.123L339.994 696ZM350.689 671.52H385.982L385.232 669.272H351.439L350.689 671.52ZM394.12 696H396.764L369.639 625.541H368.433V628.868L394.12 696Z" fill="#27AAE1"/>
</g>
<path id="Baseline-S" d="M263 696H3036" stroke="#27AAE1" stroke-width="0.5"/>
<path id="Capline-S" d="M263 625.541H3036" stroke="#27AAE1" stroke-width="0.5"/>
<g id="H-reference_2">
<path id="Vector_11" d="M339.994 1126H342.638L368.329 1058.87H369.031V1055.54H367.123L339.994 1126ZM350.689 1101.52H385.982L385.232 1099.27H351.439L350.689 1101.52ZM394.12 1126H396.764L369.639 1055.54H368.433V1058.87L394.12 1126Z" fill="#27AAE1"/>
</g>
<path id="Baseline-M" d="M263 1126H3036" stroke="#27AAE1" stroke-width="0.5"/>
<path id="Capline-M" d="M263 1055.54H3036" stroke="#27AAE1" stroke-width="0.5"/>
<g id="H-reference_3">
<path id="Vector_12" d="M339.994 1556H342.638L368.329 1488.87H369.031V1485.54H367.123L339.994 1556ZM350.689 1531.52H385.982L385.232 1529.27H351.439L350.689 1531.52ZM394.12 1556H396.764L369.639 1485.54H368.433V1488.87L394.12 1556Z" fill="#27AAE1"/>
</g>
<path id="Baseline-L" d="M263 1556H3036" stroke="#27AAE1" stroke-width="0.5"/>
<path id="Capline-L" d="M263 1485.54H3036" stroke="#27AAE1" stroke-width="0.5"/>
<path id="left-margin-Ultralight-S" d="M518.33 600.785V720.121" stroke="#00AEEF" stroke-width="0.5"/>
<path id="right-margin-Ultralight-S" d="M601.092 600.785V720.121" stroke="#00AEEF" stroke-width="0.5"/>
<path id="left-margin-Regular-S" d="M1396.48 600.785V720.121" stroke="#00AEEF" stroke-width="0.5"/>
<path id="right-margin-Regular-S" d="M1503.21 600.785V720.121" stroke="#00AEEF" stroke-width="0.5"/>
<path id="left-margin-Black-S" d="M2879.01 600.785V720.121" stroke="#00AEEF" stroke-width="0.5"/>
<path id="right-margin-Black-S" d="M2987.79 600.785V720.121" stroke="#00AEEF" stroke-width="0.5"/>
</g>
<g id="Symbols">
<g id="Black-S">
<path id="Vector_13" fill-rule="evenodd" clip-rule="evenodd" d="M2941 625C2945.24 625 2947.49 625.437 2949.84 626.684C2952.04 627.857 2953.8 629.598 2954.97 631.79C2956.13 633.934 2956.59 635.999 2956.66 639.577L2956.67 679.407C2956.67 683.625 2956.23 685.869 2954.97 688.21C2953.8 690.397 2952.04 692.147 2949.84 693.316C2947.69 694.462 2945.61 694.921 2942.02 694.991L2925.67 695C2921.43 695 2919.17 694.562 2916.82 693.316C2914.64 692.161 2912.86 690.383 2911.7 688.21C2910.54 686.066 2910.08 684.001 2910.01 680.423L2910 640.593C2910 636.375 2910.44 634.131 2911.7 631.79C2912.87 629.603 2914.62 627.852 2916.82 626.684C2918.98 625.538 2921.06 625.079 2924.65 625.009L2941 625ZM2920.15 679.688C2919.31 679.688 2918.51 680.004 2917.9 680.571C2917.29 681.139 2916.91 681.916 2916.86 682.745C2916.8 683.575 2917.06 684.395 2917.59 685.039C2918.12 685.684 2918.87 686.106 2919.7 686.219L2925.64 686.25C2926.48 686.25 2927.28 685.934 2927.89 685.366C2928.5 684.799 2928.87 684.022 2928.93 683.192C2928.99 682.363 2928.72 681.543 2928.2 680.898C2927.67 680.253 2926.92 679.831 2926.09 679.718L2920.15 679.688ZM2941.03 679.688C2940.19 679.688 2939.39 680.004 2938.78 680.571C2938.17 681.139 2937.79 681.916 2937.74 682.745C2937.68 683.575 2937.94 684.395 2938.47 685.039C2939 685.684 2939.75 686.106 2940.58 686.219L2946.52 686.25C2947.36 686.25 2948.16 685.934 2948.77 685.366C2949.38 684.799 2949.75 684.022 2949.81 683.192C2949.87 682.363 2949.6 681.543 2949.08 680.898C2948.55 680.253 2947.8 679.831 2946.97 679.718L2941.03 679.688ZM2943.45 633.75L2922.91 633.759C2921.83 633.833 2920.82 634.297 2920.07 635.064C2919.31 635.832 2918.87 636.848 2918.82 637.919L2920.91 667.857C2921.15 670.202 2921.57 673.116 2925.93 673.116L2940.09 673.125C2944.99 673.125 2945.55 670.522 2945.7 668.505C2947.14 648.319 2947.85 638.195 2947.85 638.125C2947.85 636.965 2947.39 635.852 2946.56 635.031C2945.74 634.211 2944.62 633.75 2943.45 633.75Z" fill="black"/>
</g>
<g id="Regular-S">
<path id="Vector_14" fill-rule="evenodd" clip-rule="evenodd" d="M1457 625C1461.24 625 1463.49 625.437 1465.84 626.684C1468.04 627.857 1469.8 629.598 1470.97 631.79C1472.13 633.934 1472.59 635.999 1472.66 639.577L1472.67 679.407C1472.67 683.625 1472.23 685.869 1470.97 688.21C1469.8 690.397 1468.04 692.147 1465.84 693.316C1463.69 694.462 1461.61 694.921 1458.02 694.991L1441.67 695C1437.43 695 1435.17 694.562 1432.82 693.316C1430.64 692.161 1428.86 690.383 1427.7 688.21C1426.54 686.066 1426.08 684.001 1426.01 680.423L1426 640.593C1426 636.375 1426.44 634.131 1427.7 631.79C1428.87 629.603 1430.62 627.852 1432.82 626.684C1434.98 625.538 1437.06 625.079 1440.65 625.009L1457 625ZM1436.15 679.688C1435.31 679.688 1434.51 680.004 1433.9 680.571C1433.29 681.139 1432.91 681.916 1432.86 682.745C1432.8 683.575 1433.06 684.395 1433.59 685.039C1434.12 685.684 1434.87 686.106 1435.7 686.219L1441.64 686.25C1442.48 686.25 1443.28 685.934 1443.89 685.366C1444.5 684.799 1444.87 684.022 1444.93 683.192C1444.99 682.363 1444.72 681.543 1444.2 680.898C1443.67 680.253 1442.92 679.831 1442.09 679.718L1436.15 679.688ZM1457.03 679.688C1456.19 679.688 1455.39 680.004 1454.78 680.571C1454.17 681.139 1453.79 681.916 1453.74 682.745C1453.68 683.575 1453.94 684.395 1454.47 685.039C1455 685.684 1455.75 686.106 1456.58 686.219L1462.52 686.25C1463.36 686.25 1464.16 685.934 1464.77 685.366C1465.38 684.799 1465.75 684.022 1465.81 683.192C1465.87 682.363 1465.6 681.543 1465.08 680.898C1464.55 680.253 1463.8 679.831 1462.97 679.718L1457.03 679.688ZM1459.45 633.75L1438.91 633.759C1437.83 633.833 1436.82 634.297 1436.07 635.064C1435.31 635.832 1434.87 636.848 1434.82 637.919L1436.91 667.857C1437.15 670.202 1437.57 673.116 1441.93 673.116L1456.09 673.125C1460.99 673.125 1461.55 670.522 1461.7 668.505C1463.14 648.319 1463.85 638.195 1463.85 638.125C1463.85 636.965 1463.39 635.852 1462.56 635.031C1461.74 634.211 1460.62 633.75 1459.45 633.75Z" fill="black"/>
</g>
<g id="Ultralight-S">
<path id="Vector_15" fill-rule="evenodd" clip-rule="evenodd" d="M568 626C572.237 626 574.492 626.437 576.844 627.684C579.042 628.857 580.796 630.598 581.97 632.79C583.126 634.934 583.588 636.999 583.658 640.577L583.667 680.407C583.667 684.625 583.227 686.869 581.97 689.21C580.796 691.397 579.042 693.147 576.844 694.316C574.69 695.462 572.611 695.921 569.02 695.991L552.667 696C548.429 696 546.174 695.562 543.822 694.316C541.64 693.161 539.855 691.383 538.697 689.21C537.541 687.066 537.079 685.001 537.009 681.423L537 641.593C537 637.375 537.44 635.131 538.697 632.79C539.871 630.603 541.624 628.852 543.822 627.684C545.976 626.538 548.056 626.079 551.647 626.009L568 626ZM547.146 680.688C546.31 680.688 545.506 681.004 544.896 681.571C544.286 682.139 543.914 682.916 543.857 683.745C543.801 684.575 544.062 685.395 544.589 686.039C545.116 686.684 545.87 687.106 546.697 687.219L552.641 687.25C553.476 687.25 554.28 686.934 554.89 686.366C555.501 685.799 555.872 685.022 555.929 684.192C555.986 683.363 555.724 682.543 555.197 681.898C554.67 681.253 553.916 680.831 553.089 680.718L547.146 680.688ZM568.026 680.688C567.191 680.688 566.387 681.004 565.776 681.571C565.166 682.139 564.795 682.916 564.738 683.745C564.681 684.575 564.942 685.395 565.47 686.039C565.997 686.684 566.75 687.106 567.578 687.219L573.521 687.25C574.356 687.25 575.16 686.934 575.771 686.366C576.381 685.799 576.752 685.022 576.809 684.192C576.866 683.363 576.605 682.543 576.077 681.898C575.55 681.253 574.797 680.831 573.969 680.718L568.026 680.688ZM570.453 634.75L549.906 634.759C548.831 634.833 547.82 635.297 547.066 636.064C546.313 636.832 545.868 637.848 545.818 638.919L547.906 668.857C548.148 671.202 548.57 674.116 552.931 674.116L567.085 674.125C571.987 674.125 572.549 671.522 572.703 669.505C574.136 649.319 574.849 639.195 574.849 639.125C574.849 637.965 574.385 636.852 573.561 636.031C572.737 635.211 571.619 634.75 570.453 634.75Z" fill="black"/>
</g>
</g>
</g>
<defs>
<clipPath id="clip0_762_304">
<rect width="3300" height="2200" fill="white"/>
</clipPath>
</defs>
</svg>
